<svg xmlns="http://www.w3.org/2000/svg" width="155" height="105" viewBox="0 0 155 105" fill="none">
    <g clip-path="url(#clip0_265_6286)">
        <path d="M26.5342 99.8378L28.8693 100.474L32.4205 91.7102L28.9737 90.7705L26.5342 99.8378Z"
            fill="#FFB6B6" />
        <path
            d="M25.792 102.268L32.9734 104.226L32.998 104.134C33.1988 103.388 33.0969 102.592 32.7147 101.922C32.3325 101.251 31.7013 100.761 30.96 100.558L30.9599 100.558L29.9177 99.199L27.2006 99.5335L26.5737 99.3626L25.792 102.268Z"
            fill="#2F2E41" />
        <path d="M42.6587 101.878L45.0781 101.877L46.2291 92.4834L42.6582 92.4836L42.6587 101.878Z"
            fill="#FFB6B6" />
        <path
            d="M42.5734 104.418L50.0135 104.418V104.323C50.0135 103.55 49.7084 102.809 49.1653 102.262C48.6222 101.715 47.8856 101.408 47.1176 101.408H47.1174L45.7584 100.37L43.2227 101.408L42.5732 101.408L42.5734 104.418Z"
            fill="#2F2E41" />
        <path
            d="M43.6915 47.7095L46.9384 94.0013L41.7096 94.4676L34.4149 60.1599L35.2232 80.0101L32.328 95.6225L27.9022 93.4683L27.9757 77.2119L22.165 50.9418L23.7116 47.7095H43.6915Z"
            fill="#2F2E41" />
        <path
            d="M22.9063 53.4692L22.8739 53.4234C21.141 50.9813 23.7472 45.1131 24.1403 44.2624C23.6735 44.1099 23.2737 43.7993 23.0089 43.3834C22.7441 42.9675 22.6307 42.472 22.6881 41.9814L22.8575 40.5315L23.0341 39.1093L21.7687 37.8356L21.7652 37.8038L21.037 31.3899L19.9782 27.1299C19.5793 25.5195 19.6133 23.8312 20.0767 22.2383C20.5401 20.6455 21.4164 19.2054 22.6154 18.0661L25.0627 17.6749L28.0371 14.7902H32.8335L34.4781 16.3718C37.5482 16.9138 38.0757 16.7368 40.7128 19.9223L39.5145 29.8261L39.2156 31.1886L39.2165 33.0365L39.9765 33.8867C40.2502 34.193 40.4492 34.5593 40.5574 34.9566C40.6656 35.354 40.6802 35.7712 40.5999 36.1752L40.5 36.6782C41.2838 37.0163 42.0317 43.0254 42.2104 43.8647L42.4774 45.1185C42.7057 45.4219 44.2131 47.445 44.2131 47.9981C44.2131 48.0811 44.1522 48.1614 44.0215 48.2504C42.9943 48.9506 38.8988 53.9175 36.3859 52.9053C33.7092 51.828 23.0688 53.4441 22.9616 53.4606L22.9063 53.4692Z"
            fill="#3F3D56" />
        <path
            d="M22.2619 41.9528C22.2619 41.9528 23.4937 34.9457 22.2528 32.3104L17.3301 32.6644L18.0792 42.6609L22.3826 53.7601C22.3169 54.1021 22.3423 54.4554 22.4561 54.7843C22.57 55.1132 22.7683 55.406 23.0308 55.6328C23.2934 55.8596 23.6109 56.0125 23.9512 56.0758C24.2914 56.1392 24.6423 56.1108 24.9681 55.9936C25.2939 55.8763 25.5831 55.6744 25.8063 55.4082C26.0295 55.1421 26.1788 54.8213 26.239 54.4783C26.2992 54.1353 26.2682 53.7824 26.1491 53.4554C26.03 53.1284 25.8271 52.8389 25.5609 52.6163L22.2619 41.9528Z"
            fill="#FFB6B6" />
        <path
            d="M17.3302 28.5941L17.6349 25.2544C17.7496 23.9975 18.11 22.7757 18.6954 21.6595C19.2808 20.5433 20.0797 19.5546 21.0461 18.7503C21.6466 18.2543 22.3729 17.9372 23.143 17.8349C23.9131 17.7326 24.6962 17.8491 25.404 18.1713C26.3605 18.6146 27.1141 19.4069 27.5124 20.3881C27.9107 21.3692 27.9241 22.4661 27.5497 23.4568C26.412 26.4604 26.8228 29.6369 24.6043 30.0241L24.8453 31.1784L22.664 38.344L16.4512 37.6196L17.3302 28.5941Z"
            fill="#3F3D56" />
        <path
            d="M41.7293 51.4561C41.5116 51.7269 41.3689 52.0508 41.3158 52.3949C41.2627 52.7391 41.3009 53.0913 41.4268 53.4157C41.5526 53.7402 41.7614 54.0254 42.0321 54.2423C42.3028 54.4593 42.6257 54.6002 42.968 54.6509C43.3104 54.7017 43.6599 54.6603 43.9812 54.531C44.3025 54.4018 44.5841 54.1893 44.7975 53.9151C45.0108 53.6408 45.1483 53.3147 45.1959 52.9697C45.2435 52.6247 45.1996 52.2732 45.0686 51.9508L47.1279 40.2179L45.9166 30.2675L41.0204 30.8914C40.3166 33.7203 42.8885 40.3486 42.8885 40.3486L41.7293 51.4561Z"
            fill="#FFB6B6" />
        <path
            d="M47.7433 34.9533L41.792 36.8891L39.5007 33.291L39.5123 32.1115C37.2614 32.1694 35.8033 25.9751 34.1029 23.2542C33.543 22.3565 33.3425 21.2783 33.5421 20.2376C33.7417 19.1968 34.3265 18.2712 35.1781 17.6479C35.8095 17.1923 36.5548 16.9236 37.3299 16.872C38.1049 16.8205 38.8789 16.9882 39.5643 17.3562C40.6685 17.9542 41.6444 18.7662 42.4357 19.7453C43.2271 20.7244 43.8183 21.8513 44.1755 23.0613L45.1243 26.2761L47.7433 34.9533Z"
            fill="#3F3D56" />
        <path
            d="M30.112 13.3966C33.0539 13.3966 35.4388 10.996 35.4388 8.03461C35.4388 5.07326 33.0539 2.67261 30.112 2.67261C27.1701 2.67261 24.7852 5.07326 24.7852 8.03461C24.7852 10.996 27.1701 13.3966 30.112 13.3966Z"
            fill="#FFB6B6" />
        <path
            d="M26.2459 11.8141C26.1994 11.773 26.1555 11.7292 26.1101 11.687C26.1084 11.6913 26.1082 11.6958 26.1064 11.7001L26.2459 11.8141Z"
            fill="#2F2E41" />
        <path
            d="M34.4775 2.37232C34.2128 1.94345 33.8462 1.58767 33.4108 1.33709C33.1132 1.19179 32.8004 1.08025 32.4783 1.00452L31.6353 0.772994C31.2034 0.638456 30.759 0.548388 30.309 0.504175C29.6841 0.473144 29.0627 0.615569 28.5128 0.91589C27.9629 1.21621 27.5055 1.66288 27.1906 2.20711C26.9359 2.66184 26.7316 3.22851 26.2401 3.39488C25.8437 3.52903 25.4113 3.3398 24.9947 3.37651C24.7506 3.41212 24.519 3.50778 24.3204 3.65503C24.1218 3.80228 23.9623 3.99656 23.8562 4.22067C23.6486 4.67164 23.5464 5.16452 23.5575 5.66144C23.5411 6.78961 23.7599 7.90872 24.1996 8.94656C24.6393 9.98441 25.2903 10.9179 26.1105 11.687C26.248 11.3222 26.0216 10.9283 25.8426 10.5794C25.6614 10.2263 25.5495 9.73401 25.8529 9.4797C26.1904 9.19672 26.7312 9.47113 27.1305 9.28659C27.2582 9.21275 27.3657 9.10821 27.4435 8.98232C27.5213 8.85643 27.567 8.71311 27.5763 8.56515C27.615 8.27196 27.5746 7.97393 27.5929 7.67874C27.6109 7.38782 27.6857 7.10332 27.8129 6.84148C27.9402 6.57965 28.1174 6.34561 28.3345 6.15272C28.5516 5.95983 28.8043 5.81187 29.0782 5.71729C29.3521 5.62272 29.6419 5.58337 29.9309 5.60151C29.9375 5.60192 29.9442 5.60237 29.9508 5.60285C30.8595 5.66818 31.7413 6.2932 32.6158 6.03607C33.0262 5.91538 33.3763 5.60807 33.8008 5.55638C34.271 5.49913 34.7133 5.76622 35.1125 6.02267C35.2576 5.40263 35.2761 4.7594 35.1669 4.13194C35.0578 3.50448 34.8232 2.90586 34.4775 2.37232Z"
            fill="#2F2E41" />
        <path
            d="M62.313 101.406L60.9575 99.213L60.6868 100.466C60.6393 100.685 60.5918 100.908 60.5479 101.13C60.1629 100.799 59.7532 100.493 59.3524 100.199C58.1217 99.2997 56.8916 98.3995 55.6621 97.4982L56.0471 99.7457C56.2845 101.13 56.5324 102.542 57.1196 103.807C57.1847 103.951 57.255 104.092 57.3306 104.23H63.0515C63.0975 104.102 63.1293 103.969 63.1464 103.834C63.1478 103.825 63.1484 103.816 63.1481 103.807C63.2378 102.949 62.7666 102.14 62.313 101.406Z"
            fill="#F0F0F0" />
        <path
            d="M68.9688 104.446L13.5257 104.5C13.4703 104.5 13.4174 104.477 13.3783 104.438C13.3393 104.398 13.3174 104.345 13.3174 104.289C13.3174 104.234 13.3393 104.18 13.3783 104.141C13.4174 104.101 13.4703 104.079 13.5257 104.079L68.9688 104.024C69.0242 104.024 69.0771 104.047 69.1162 104.086C69.1552 104.126 69.1771 104.179 69.1771 104.235C69.1771 104.291 69.1552 104.344 69.1162 104.384C69.0771 104.423 69.0242 104.445 68.9688 104.446Z"
            fill="#CACACA" />
        <path
            d="M126.279 34.7255C126.267 40.9205 123.953 46.8869 119.792 51.4516C115.631 56.0164 109.925 58.8494 103.794 59.3937C97.6636 59.9379 91.5525 58.154 86.6624 54.3927C81.7722 50.6314 78.4567 45.1648 77.3676 39.0676C76.2785 32.9703 77.4947 26.6836 80.7771 21.4432C84.0594 16.2028 89.1704 12.3879 95.1054 10.7485C101.04 9.10912 107.37 9.76379 112.85 12.5838C118.329 15.4039 122.563 20.1853 124.718 25.988C124.772 26.1337 124.824 26.2794 124.875 26.4266V26.428C125.103 27.0747 125.303 27.7334 125.476 28.4042C126.011 30.4682 126.28 32.5925 126.279 34.7255Z"
            fill="#3F3D56" />
        <path
            d="M98.7469 17.8718C97.6317 17.2648 96.3934 16.9221 95.1266 16.8699C93.8598 16.8178 92.5979 17.0575 91.4372 17.5708C90.4152 18.0185 89.339 18.8217 88.998 20.2721C90.377 19.4529 92.162 20.7472 92.5168 22.8235L92.434 22.8465C92.2466 24.2846 92.6649 25.8503 93.4749 26.7421C93.5351 26.3397 93.6836 25.9559 93.9096 25.6185C94.1356 25.2811 94.4334 24.9987 94.7814 24.7916C95.3765 24.3978 96.0349 24.1117 96.4891 23.4349C97.0276 22.6324 97.1644 21.4596 97.3783 20.3897C97.5922 19.3199 97.998 18.17 98.7469 17.8718Z"
            fill="#FFFDFF" />
        <path
            d="M91.0278 30.1097C90.646 30.6871 90.1359 31.0493 89.6781 31.5003C89.1497 31.9841 88.8031 32.6364 88.6965 33.3474C88.6386 33.8498 88.7282 34.3605 88.7158 34.8684C88.7034 35.3764 88.5352 35.9481 88.1919 36.0744C87.6501 36.2715 87.2365 35.2584 86.6795 35.1876C86.2369 35.1321 85.8385 35.8329 85.9667 36.4408C86.0949 37.0486 86.6974 37.3179 87.0435 36.921C87.3564 37.4497 87.1358 38.4087 86.6657 38.571C86.6161 38.9041 86.5665 39.2358 86.5182 39.5688C85.3298 38.732 84.129 37.8813 83.1184 36.6559C81.9945 35.3046 81.2974 33.646 81.1166 31.893C80.9856 30.4844 81.18 28.8732 80.5375 27.7894C80.0233 26.922 79.1409 26.7305 78.3468 26.7846C78.202 26.7943 78.0559 26.811 77.9111 26.829C78.3795 25.4132 78.9742 24.0429 79.6882 22.7351C79.8498 22.6653 79.9999 22.5712 80.1335 22.4561C80.8725 21.8247 81.2006 20.5465 81.8003 19.6625C81.839 19.6056 81.8789 19.5501 81.9203 19.496C82.5338 18.6897 83.3555 18.2747 84.1496 17.8889C85.9074 17.0299 87.7162 16.1597 89.5719 16.2791L89.0439 16.3304C88.4276 18.0679 87.8109 19.8055 87.1937 21.543C87.0999 21.8094 87.0053 22.0763 86.9097 22.3437C86.5595 23.3318 86.1983 24.3837 86.2521 25.4898C86.2838 26.1448 86.5099 26.8443 86.94 27.0691C87.3412 27.2773 87.7796 27.0219 88.167 26.7693C88.3311 26.6639 88.4938 26.5584 88.6578 26.4515C89.2465 26.0699 89.8987 25.6785 90.5204 25.9339C91.0898 26.167 91.5103 26.9456 91.5903 27.7852C91.6636 28.6013 91.4658 29.4189 91.0278 30.1097Z"
            fill="#FFFDFF" />
        <path
            d="M94.5291 41.9721C92.8098 40.9065 91.0904 39.8409 89.3711 38.7753L89.4002 38.6996C88.3312 39.1094 87.8874 41.0222 88.0641 42.5864C88.2408 44.1507 88.8398 45.549 89.1424 47.0732C89.5505 49.1589 89.3965 51.3166 88.6964 53.3222C90.9572 50.7687 92.958 47.9934 94.6688 45.0381C94.9078 44.6656 95.0899 44.2591 95.2091 43.8322C95.3353 43.3773 95.2903 42.8915 95.0827 42.4679C94.942 42.2589 94.7517 42.0885 94.5291 41.9721Z"
            fill="#FFFDFF" />
        <path
            d="M87.7441 22.5855C87.5423 23.0218 87.5111 23.5188 87.657 23.9772C87.8267 24.3465 88.1344 24.6334 88.5132 24.7754L89.4633 25.2495C89.7793 25.4072 90.12 25.5664 90.4422 25.4367C90.8308 25.2802 91.1002 24.6669 91.0305 24.0976C90.9563 23.4918 90.5769 23.0751 90.2261 22.7202C89.7351 22.2236 89.2441 21.727 88.7531 21.2303L88.4764 21.5715C88.1771 21.8654 87.9295 22.2082 87.7441 22.5855Z"
            fill="#FFFDFF" />
        <path
            d="M121.186 29.062C121.613 29.1633 122.041 29.2646 122.468 29.3659C122.394 30.819 121.678 32.1637 120.719 32.6508C120.319 32.8535 119.873 32.9284 119.542 33.3073C119.243 33.6514 119.092 34.1871 118.952 34.6992C118.708 35.5929 118.464 36.4866 118.22 37.3804C117.958 38.3435 117.622 39.4135 116.941 39.7604C116.356 40.0588 115.688 39.6938 115.238 39.0818C114.789 38.4698 114.514 37.6468 114.248 36.8447C114.265 37.719 113.861 38.5767 113.289 38.8806C112.715 39.1845 112.018 38.9097 111.634 38.2311C111.359 37.744 111.244 37.1014 110.974 36.6074C110.704 36.1133 110.137 35.8302 109.842 36.2937C109.648 36.6018 109.673 37.0737 109.576 37.465C109.527 37.7249 109.4 37.963 109.21 38.1463C109.021 38.3296 108.78 38.449 108.52 38.4878C108.281 38.4823 108.046 38.4279 107.828 38.3279C107.611 38.228 107.416 38.0845 107.256 37.9063C106.411 37.037 105.862 35.9213 105.685 34.7186C105.566 34.142 105.581 33.5453 105.73 32.9756C105.899 32.4357 106.309 32.0194 106.715 32.1221C106.983 31.5531 106.455 30.7981 105.979 30.8647C105.502 30.9314 105.128 31.4462 104.737 31.8417C104.347 32.2373 103.801 32.5245 103.408 32.1318C103.417 32.2754 103.368 32.4167 103.274 32.5245C103.179 32.6324 103.046 32.6979 102.903 32.7068C102.889 32.7077 102.875 32.708 102.861 32.7077C102.599 32.6322 102.356 32.5027 102.148 32.3275C101.247 31.7626 100.105 32.1373 99.4648 33.2059C99.8647 31.4934 100.451 29.5283 101.679 29.1258C102.181 28.9607 102.728 29.0967 103.202 28.8108C104.042 28.3043 104.212 26.3905 103.486 25.6009C103.579 26.3475 103.561 27.219 103.169 27.7298C102.778 28.2405 101.956 27.9074 102.006 27.1524C101.995 27.2586 101.95 27.3585 101.879 27.4379C101.808 27.5172 101.714 27.5718 101.61 27.594C101.507 27.6162 101.399 27.6048 101.302 27.5613C101.205 27.5179 101.124 27.4447 101.071 27.3523C100.81 26.9526 100.833 26.299 101.017 25.8216C101.208 25.3892 101.481 24.9987 101.821 24.6725C102.476 23.9661 103.14 23.2514 103.899 22.8073C104.658 22.3632 105.535 22.2133 106.296 22.6547C106.697 22.8878 107.05 23.2764 107.46 23.4818C107.556 23.5419 107.663 23.5823 107.775 23.6008C107.887 23.6192 108.001 23.6153 108.111 23.5894C108.221 23.5634 108.325 23.5158 108.417 23.4493C108.509 23.3828 108.587 23.2987 108.647 23.2019C108.652 23.1944 108.656 23.1868 108.661 23.1792C108.965 22.6408 108.822 21.8414 108.935 21.1683C109.138 19.979 110.319 19.4225 110.974 20.208C110.485 20.0817 109.979 20.6646 109.918 21.371C109.856 22.0773 110.21 22.7907 110.685 23.0044C111.481 23.3596 112.262 22.4659 112.864 21.6388C113.493 20.7728 114.122 19.9073 114.753 19.0423C114.854 18.895 114.967 18.7566 115.091 18.6287C115.288 18.435 115.551 18.324 115.827 18.3183C116.103 18.3127 116.37 18.4127 116.576 18.5982C117.213 19.1214 117.512 20.1941 118.034 20.9324C118.793 22.0052 119.927 22.2661 120.983 22.4742C121.77 22.6283 122.558 22.7833 123.346 22.9392C123.872 23.923 124.33 24.9417 124.718 25.9881C123.273 26.6515 122.047 27.7183 121.186 29.062Z"
            fill="#FFFDFF" />
        <path
            d="M125.475 28.4042C125.314 28.8834 125.226 29.3846 125.214 29.8905C124.538 29.0606 124.43 27.5049 124.874 26.428C125.102 27.0747 125.302 27.7334 125.475 28.4042Z"
            fill="#FFFDFF" />
        <path
            d="M123.73 45.7598C123.139 46.967 122.452 48.1241 121.676 49.2195C121.179 49.0058 120.646 49.3874 120.181 49.7455C119.696 50.1202 119.113 50.4851 118.615 50.1437C118.106 49.794 117.942 48.8157 118.104 48.0399C118.289 47.3242 118.613 46.6526 119.058 46.0637C119.471 45.4419 119.914 44.7966 120.489 44.5551C121.065 44.3137 121.805 44.6551 121.974 45.4794L122.382 45.4655C122.153 45.1491 122.273 44.4941 122.58 44.3789C122.935 44.2443 123.242 44.7342 123.452 45.1672C123.545 45.3628 123.64 45.5599 123.73 45.7598Z"
            fill="#FFFDFF" />
        <path
            d="M108.101 39.8979C107.224 39.9534 106.529 38.8665 106.067 37.7971C105.606 36.7278 105.184 35.505 104.393 34.9607C103.941 34.6497 103.425 34.607 102.934 34.4563C102.656 34.3855 102.399 34.2491 102.183 34.0582C101.968 33.8673 101.801 33.6275 101.696 33.3587L101.14 33.1324C100.361 33.5241 99.6484 34.0357 99.027 34.6487C98.3168 35.4081 97.8745 36.3815 97.7682 37.4189C97.6619 38.54 98.0544 39.7901 98.7878 40.2112C99.3672 40.544 100.042 40.3342 100.629 40.6389C101.362 41.0195 101.798 42.1252 101.963 43.2169C102.127 44.3086 102.086 45.4431 102.203 46.5472C102.321 47.6512 102.646 48.8001 103.319 49.3659C104.161 50.0739 105.396 49.4856 105.773 48.1967C105.958 47.5645 105.952 46.8511 106.091 46.1949C106.334 45.0392 106.993 44.1817 107.515 43.2337C108.037 42.2857 108.448 40.9981 108.101 39.8979Z"
            fill="#FFFDFF" />
        <path
            d="M99.4331 28.5415C99.5149 28.6173 99.5912 28.6989 99.6615 28.7856C99.7342 28.9119 99.7714 29.0557 99.7689 29.2017C99.7664 29.3476 99.7245 29.4901 99.6475 29.6137C99.7531 29.6077 99.8564 29.5796 99.9507 29.5314C100.045 29.4831 100.128 29.4157 100.196 29.3333C100.356 29.1498 100.497 28.9501 100.616 28.7374C100.672 28.6646 100.712 28.5806 100.733 28.491C100.755 28.4013 100.757 28.3082 100.74 28.2176C100.698 28.0986 100.6 28.0478 100.532 27.9583C100.436 27.7833 100.371 27.5932 100.339 27.3963C100.301 27.2117 100.213 27.0414 100.084 26.9047C99.955 26.7679 99.7907 26.67 99.6096 26.6221L99.6536 26.6305C99.5787 26.6752 99.5197 26.7424 99.4847 26.8225C99.4496 26.9027 99.4404 26.9919 99.4583 27.0776C99.4849 27.2508 99.5954 27.3946 99.5844 27.5712C99.5686 27.8252 99.3165 27.9444 99.3009 28.1984C99.2984 28.3258 99.3459 28.4491 99.4331 28.5415Z"
            fill="#FFFDFF" />
        <path
            d="M97.9307 24.2254L97.9346 24.2247C97.9616 24.1999 97.9866 24.1731 98.0094 24.1444L97.9307 24.2254Z"
            fill="#FFFDFF" />
        <path
            d="M98.1938 25.4176C98.2992 25.3245 98.3771 25.2041 98.4191 25.0695C98.4611 24.9349 98.4655 24.7912 98.4319 24.6543C98.3682 24.3655 98.1427 24.1713 97.9347 24.2246C97.8743 24.2862 97.7994 24.3314 97.717 24.3558C97.6345 24.3802 97.5473 24.3832 97.4634 24.3643C97.3348 24.331 97.1936 24.2451 97.082 24.3427C97.0182 24.4155 96.9736 24.5033 96.9521 24.598C96.9109 24.7256 96.8696 24.8531 96.8283 24.9807C96.8087 25.0264 96.8036 25.077 96.8136 25.1257C96.8215 25.1452 96.8343 25.1624 96.8507 25.1755C96.8671 25.1886 96.8866 25.1973 96.9072 25.2006C97.155 25.2741 97.4027 25.3476 97.6504 25.4212C97.7357 25.4607 97.8286 25.4809 97.9225 25.4803C98.0164 25.4797 98.109 25.4582 98.1938 25.4176Z"
            fill="#FFFDFF" />
        <path
            d="M116.895 41.8766C116.78 41.6878 116.666 41.4991 116.551 41.3104C116.439 41.0919 116.285 40.8975 116.098 40.7383C116.058 40.7042 116.011 40.6785 115.961 40.6626C115.911 40.6467 115.858 40.6409 115.806 40.6456C115.753 40.6503 115.702 40.6653 115.655 40.6898C115.609 40.7143 115.567 40.7479 115.533 40.7885L115.527 40.7959L115.541 40.9037C115.848 41.2345 116.057 41.6449 116.145 42.0886C116.171 42.2815 116.162 42.4811 116.185 42.6748C116.187 42.7646 116.207 42.8531 116.243 42.9351C116.28 43.0171 116.332 43.0911 116.397 43.1529C116.577 43.2741 116.789 43.0953 116.917 42.8772C117.032 42.698 117.083 42.4852 117.063 42.273C117.035 42.1306 116.977 41.9957 116.895 41.8766Z"
            fill="#FFFDFF" />
        <path
            d="M118.69 42.1221C118.712 41.9454 118.698 41.7662 118.648 41.5952C118.64 41.364 118.701 41.1356 118.823 40.9395C118.944 40.7546 119.036 40.5517 119.096 40.3383C119.12 40.241 119.116 40.1385 119.082 40.0439C119.045 39.9582 118.953 39.9191 118.9 39.9869L119.013 40.06C118.861 40.0327 118.704 40.0403 118.555 40.0823C118.471 40.115 118.395 40.1678 118.334 40.2363C118.274 40.3047 118.231 40.3868 118.209 40.4756C118.19 40.614 118.16 40.7505 118.118 40.8837C118.051 41.0227 117.921 41.069 117.839 41.1911C117.783 41.2993 117.755 41.4198 117.757 41.5417C117.759 41.6636 117.791 41.7831 117.85 41.8894C117.953 42.0632 118.116 42.1925 118.308 42.2519C118.446 42.3016 118.627 42.3042 118.69 42.1221Z"
            fill="#FFFDFF" />
        <path
            d="M121.89 43.0936C121.939 43.2239 122.006 43.347 122.088 43.4598C122.241 43.6151 122.449 43.5196 122.635 43.4819C122.804 43.4551 122.976 43.4747 123.135 43.5387C123.293 43.6026 123.431 43.7086 123.535 43.8452C123.463 43.4835 123.305 43.1445 123.076 42.8566C122.847 42.5688 122.553 42.3405 122.218 42.191C121.782 42.0393 121.323 41.9671 120.863 41.9777L120.784 41.998C120.985 42.5854 121.614 42.5723 121.89 43.0936Z"
            fill="#FFFDFF" />
        <path d="M108.341 44.2943L108.342 44.2968L108.364 44.2533L108.341 44.2943Z" fill="#FFFDFF" />
        <path
            d="M107.855 45.2406C107.75 45.434 107.659 45.6352 107.583 45.8426C107.483 46.1784 107.417 46.5235 107.386 46.8726C107.361 47.0712 107.354 47.3247 107.477 47.4215C107.513 47.4452 107.555 47.455 107.598 47.4493C107.64 47.4435 107.679 47.4225 107.706 47.3901C107.775 47.317 107.831 47.233 107.873 47.1414C108.116 46.7204 108.304 46.2699 108.434 45.8009C108.569 45.3034 108.537 44.7747 108.342 44.2976C108.18 44.6119 108.018 44.9262 107.855 45.2406Z"
            fill="#FFFDFF" />
        <path
            d="M103.174 20.0502C103.251 20.126 103.349 20.1775 103.454 20.1983C103.56 20.2191 103.67 20.2083 103.77 20.1672C103.976 20.0763 104.166 19.9503 104.33 19.7947C104.466 19.6934 104.581 19.5668 104.669 19.4217C104.718 19.335 104.749 19.2395 104.761 19.1406C104.773 19.0418 104.766 18.9415 104.739 18.8456C104.701 18.7537 104.64 18.6731 104.563 18.6113C104.485 18.5496 104.393 18.5088 104.296 18.4927C104.021 18.4106 103.746 18.3286 103.471 18.2465L103.67 18.0661C103.465 17.9555 103.239 18.1607 103.111 18.4147C103.029 18.5805 102.972 18.7577 102.941 18.9404C102.898 19.1314 102.896 19.3295 102.936 19.5211C102.976 19.7128 103.058 19.8933 103.174 20.0502Z"
            fill="#FFFDFF" />
        <path
            d="M108.028 18.4098C108.105 18.4958 108.213 18.5489 108.328 18.5583C108.443 18.5677 108.557 18.5328 108.647 18.4605C108.725 18.4018 108.789 18.3272 108.836 18.2417C108.884 18.1561 108.912 18.0616 108.921 17.9641C108.94 17.7464 108.833 17.5044 108.681 17.4856L108.716 17.2818C108.421 17.2283 108.059 17.2176 107.902 17.5772C107.848 17.715 107.832 17.8644 107.854 18.0105C107.877 18.1566 107.936 18.2943 108.028 18.4098Z"
            fill="#FFFDFF" />
        <g opacity="0.35">
            <path
                d="M154.575 35.9562C156.199 35.2436 152.906 34.8287 149.17 34.6923C145.434 34.556 140.915 34.5635 138.528 34.1755C136.219 33.8003 136.389 33.1332 136.195 32.5287C136 31.9243 135.113 31.3045 131.51 31.1702C127.02 31.0027 119.616 31.6472 116.227 31.2603C113.064 30.8992 114.944 29.7666 110.332 29.7232C107.699 29.6985 104.306 30.0719 101.376 30.162C99.2988 30.2527 97.2178 30.1435 95.1613 29.8358C93.7331 29.6003 92.7383 29.3017 91.1308 29.0936C86.9106 28.5474 78.6538 28.731 71.2843 29.4311C63.9148 30.1311 57.5977 31.2784 54.0352 32.4148C50.4726 33.5511 49.4883 34.67 50.3182 35.6187C50.8481 36.2245 52.2041 36.791 55.4935 37.0345C61.6461 37.4898 72.6003 36.706 78.958 37.1203C82.5014 37.3512 84.0734 37.9237 87.1824 38.2369C90.5224 38.5735 95.412 38.5913 100.216 38.5833C110.219 38.5667 120.477 38.4632 130.937 38.2735C135.306 38.1943 139.884 38.0913 144.534 37.7136C149.183 37.336 153.925 36.6074 154.906 35.9244"
                fill="white" />
        </g>
        <path
            d="M126.346 67.4313C124.076 67.4313 121.588 67.3449 118.882 67.1722C104.885 66.2775 86.7549 63.1669 67.8309 58.4135C48.9071 53.6602 31.4504 47.8317 18.6769 42.0022C12.4545 39.1623 7.67885 36.4742 4.48276 34.0124C1.09892 31.4061 -0.381219 29.1343 0.0832845 27.2604C0.988348 23.6097 9.00233 22.8109 15.5659 22.7838L15.5681 23.3147C6.55463 23.352 1.23713 24.7989 0.595098 27.389C-0.222746 30.6877 6.44724 35.8377 18.8947 41.5186C31.6402 47.3353 49.0647 53.1526 67.9587 57.8985C86.8525 62.6443 104.949 65.7495 118.916 66.6424C132.555 67.5144 140.847 66.1225 141.664 62.8236C142.343 60.0847 137.867 56.05 129.061 51.4624L129.303 50.9909C135.702 54.3243 143.13 59.1053 142.176 62.9522C141.712 64.8262 139.345 66.1315 135.141 66.8319C132.745 67.2312 129.802 67.4313 126.346 67.4313Z"
            fill="#FFFDFF" />
        <path
            d="M39.7325 68.1225C33.4738 68.1227 27.6554 67.9065 22.4465 67.4703C15.6379 66.9 10.2426 65.9832 6.4107 64.7456C2.35358 63.4351 0.20119 61.796 0.0132748 59.8738C-0.352938 56.1294 6.92861 52.6667 13.1015 50.4212L13.2808 50.9207C4.80377 54.0042 0.278372 57.1653 0.538134 59.822C0.868979 63.2055 8.87016 65.8003 22.4901 66.9411C36.4364 68.1092 54.7896 67.6953 74.1692 65.7749C93.5487 63.855 111.63 60.6593 125.082 56.7767C138.22 52.9849 145.565 48.8696 145.234 45.4861C144.96 42.6768 139.397 40.3905 129.571 39.048L129.642 38.522C136.782 39.4974 145.373 41.4883 145.759 45.4341C145.947 47.3562 144.153 49.3862 140.428 51.4677C136.909 53.4337 131.795 55.3917 125.228 57.287C111.746 61.1783 93.6311 64.3802 74.2208 66.3034C62.0443 67.5097 50.2675 68.1225 39.7325 68.1225Z"
            fill="#FFFDFF" />
        <path
            d="M76.978 79.3364C78.6756 79.3364 80.0517 77.9512 80.0517 76.2424C80.0517 74.5337 78.6756 73.1484 76.978 73.1484C75.2804 73.1484 73.9043 74.5337 73.9043 76.2424C73.9043 77.9512 75.2804 79.3364 76.978 79.3364Z"
            fill="#FFFDFF" />
        <path
            d="M16.4516 61.0696C18.1492 61.0696 19.5253 59.6844 19.5253 57.9756C19.5253 56.2668 18.1492 54.8816 16.4516 54.8816C14.7541 54.8816 13.3779 56.2668 13.3779 57.9756C13.3779 59.6844 14.7541 61.0696 16.4516 61.0696Z"
            fill="#E6E6E6" />
        <path
            d="M72.8865 13.6445C73.9256 13.6445 74.768 12.7965 74.768 11.7505C74.768 10.7044 73.9256 9.85645 72.8865 9.85645C71.8473 9.85645 71.0049 10.7044 71.0049 11.7505C71.0049 12.7965 71.8473 13.6445 72.8865 13.6445Z"
            fill="#FF6584" />
        <path
            d="M61.5024 27.9422C63.2 27.9422 64.5761 26.5569 64.5761 24.8482C64.5761 23.1394 63.2 21.7542 61.5024 21.7542C59.8049 21.7542 58.4287 23.1394 58.4287 24.8482C58.4287 26.5569 59.8049 27.9422 61.5024 27.9422Z"
            fill="#E6E6E6" />
    </g>
    <defs>
        <clipPath id="clip0_265_6286">
            <rect width="155" height="104" fill="white" transform="translate(0 0.5)" />
        </clipPath>
    </defs>
</svg>
