<svg width="95" height="73" viewBox="0 0 95 73" fill="none" xmlns="http://www.w3.org/2000/svg">
    <g clip-path="url(#clip0_261_987)">
        <path
            d="M63.6636 20.5548C65.7016 15.0811 70.5166 10.3514 76.3356 9.78882C72.8372 15.0917 71.3292 21.4598 72.0785 27.7664C72.3763 30.1976 72.9609 32.8706 71.6489 34.9398C70.8326 36.2273 69.394 37.02 67.9111 37.3777C66.4281 37.7353 64.8828 37.7076 63.3575 37.6779L63.016 37.8463C61.9432 32.1054 61.6256 26.0285 63.6636 20.5548Z"
            fill="#F0F0F0" />
        <path
            d="M76.3638 9.90808C72.397 12.6765 69.4042 16.6231 67.8106 21.1873C67.4751 22.1672 67.2202 23.1904 67.2055 24.231C67.1989 25.2453 67.4644 26.243 67.9744 27.1202C68.4334 27.9476 68.9989 28.7409 69.2486 29.6654C69.5118 30.6399 69.2973 31.6257 68.7596 32.4676C68.1018 33.4978 67.1127 34.2303 66.1205 34.9131C65.0189 35.6713 63.8626 36.4413 63.1885 37.6323C63.1069 37.7766 62.8875 37.6416 62.969 37.4975C64.1418 35.4254 66.603 34.6727 68.1087 32.9126C68.8113 32.0913 69.2703 31.0535 69.0531 29.9599C68.8632 29.0036 68.2807 28.1851 67.8087 27.3513C67.3131 26.4758 66.9892 25.5672 66.9515 24.5543C66.9129 23.5181 67.1283 22.4828 67.4372 21.4986C68.1543 19.272 69.2175 17.172 70.5877 15.2754C72.1394 13.1021 74.0519 11.21 76.2424 9.68099C76.378 9.58641 76.4985 9.81411 76.3638 9.90808Z"
            fill="white" />
        <path
            d="M68.2368 19.6875C67.5065 19.3164 66.9321 18.6982 66.616 17.943C66.2999 17.1879 66.2628 16.3452 66.5114 15.5653C66.5622 15.4076 66.8098 15.4791 66.7589 15.637C66.5261 16.3628 66.5608 17.1478 66.8565 17.8504C67.1523 18.5529 67.6897 19.1268 68.3718 19.4682C68.5199 19.5426 68.3841 19.7615 68.2368 19.6875Z"
            fill="white" />
        <path
            d="M67.6865 26.7313C69.2836 26.2274 70.6319 25.1406 71.4626 23.6878C71.5447 23.5438 71.7641 23.6788 71.6821 23.8226C70.8148 25.3329 69.4094 26.4609 67.7463 26.9816C67.5878 27.0311 67.5288 26.7805 67.6865 26.7313Z"
            fill="white" />
        <path
            d="M72.3159 13.3944C72.5685 13.5968 72.8675 13.7334 73.186 13.7918C73.5045 13.8502 73.8325 13.8287 74.1406 13.7292C74.2985 13.6777 74.3572 13.9284 74.2004 13.9796C73.8595 14.0879 73.4971 14.1113 73.1451 14.0475C72.7931 13.9837 72.462 13.8348 72.1809 13.6137C72.1527 13.5951 72.1326 13.5664 72.1247 13.5335C72.1169 13.5006 72.1219 13.466 72.1386 13.4367C72.1567 13.4077 72.1854 13.387 72.2186 13.3791C72.2518 13.3712 72.2867 13.3767 72.3159 13.3944Z"
            fill="white" />
        <path
            d="M90.3612 23.7414C90.2636 23.7764 90.1659 23.8114 90.0676 23.8484C88.7573 24.3252 87.4879 24.9076 86.2719 25.5898C86.1771 25.641 86.0817 25.6944 85.9886 25.7483C83.0766 27.423 80.5012 29.6232 78.3933 32.2371C77.5555 33.278 76.7982 34.3811 76.1279 35.5368C75.2023 37.1329 74.3258 38.937 72.9664 40.1002C72.8259 40.2231 72.678 40.3373 72.5234 40.4419L63.2482 38.2495C63.2296 38.2339 63.2104 38.2204 63.1917 38.2049L62.8174 38.1342C62.8478 38.0722 62.8806 38.0086 62.9111 37.9465C62.9285 37.9105 62.9481 37.8749 62.9656 37.8389C62.9779 37.815 62.9903 37.7911 63.0001 37.7689C63.0041 37.7609 63.0083 37.753 63.0119 37.7471C63.0216 37.7249 63.033 37.7053 63.0423 37.6851C63.225 37.3287 63.4106 36.973 63.5989 36.6179C63.5994 36.6158 63.5994 36.6158 63.602 36.6142C65.0443 33.9124 66.7251 31.3072 68.7482 29.0397C68.8091 28.9715 68.8704 28.9012 68.9355 28.834C69.8532 27.8169 70.8525 26.8765 71.9235 26.0221C72.5114 25.5561 73.1226 25.1202 73.7547 24.716C75.3899 23.6746 77.1789 22.8967 79.0561 22.4108C82.7984 21.4425 86.809 21.6807 90.1104 23.5929C90.1948 23.6418 90.2773 23.6903 90.3612 23.7414Z"
            fill="#F0F0F0" />
        <path
            d="M90.3125 23.8541C85.4767 23.6787 80.7085 25.0299 76.6852 27.7157C75.8268 28.2964 75.0066 28.96 74.3677 29.782C73.7511 30.588 73.3618 31.5442 73.2403 32.5513C73.1081 33.4881 73.0815 34.4616 72.7237 35.3499C72.3465 36.2863 71.5811 36.9444 70.6444 37.2932C69.4983 37.7201 68.267 37.7101 67.0633 37.6586C65.7267 37.6013 64.3394 37.5207 63.0834 38.0663C62.9312 38.1324 62.8375 37.8926 62.9894 37.8266C65.1746 36.8775 67.5935 37.7568 69.8564 37.257C70.9124 37.0238 71.9044 36.4713 72.3901 35.4675C72.8148 34.5897 72.8431 33.5858 72.9687 32.6362C73.1007 31.6391 73.3897 30.7188 73.9701 29.8874C74.5637 29.0368 75.3597 28.3397 76.1995 27.7397C78.1141 26.3933 80.2286 25.3559 82.4657 24.6656C85.0145 23.8637 87.6819 23.5032 90.3524 23.5998C90.5177 23.6058 90.4767 23.8601 90.3125 23.8541Z"
            fill="white" />
        <path
            d="M77.9303 26.7747C77.5708 26.0392 77.4848 25.2 77.6875 24.407C77.8903 23.614 78.3686 22.9188 79.0371 22.4456C79.1726 22.3503 79.3272 22.5563 79.1915 22.6517C78.5682 23.0912 78.1227 23.7389 77.9354 24.4777C77.7481 25.2165 77.8314 25.9979 78.1702 26.6808C78.2436 26.8293 78.0033 26.9223 77.9303 26.7747Z"
            fill="white" />
        <path
            d="M73.2451 32.0674C74.824 32.6257 76.5555 32.5689 78.0944 31.9085C78.2468 31.8429 78.3406 32.0826 78.1884 32.1481C76.5857 32.8324 74.7837 32.8878 73.142 32.3033C72.9855 32.2475 73.0895 32.0119 73.2451 32.0674Z"
            fill="white" />
        <path
            d="M84.979 24.2031C85.0588 24.5167 85.2152 24.8055 85.4343 25.0437C85.6534 25.2819 85.9282 25.462 86.2342 25.5679C86.3913 25.6217 86.2871 25.8572 86.1311 25.8038C85.7935 25.6852 85.4902 25.4859 85.2476 25.2233C85.0049 24.9606 84.8304 24.6426 84.7391 24.297C84.7278 24.2652 84.729 24.2302 84.7426 24.1992C84.7561 24.1683 84.781 24.1436 84.8121 24.1303C84.8439 24.118 84.8793 24.1188 84.9106 24.1324C84.9418 24.146 84.9664 24.1715 84.979 24.2031Z"
            fill="white" />
        <path
            d="M9.92236 70.7281C4.61246 68.2847 0.254964 63.1312 0.132812 57.2925C5.16191 61.1777 11.4046 63.1607 17.7564 62.8906C20.2056 62.7775 22.918 62.3971 24.8844 63.8601C26.1079 64.7705 26.7904 66.2633 27.0355 67.7675C27.2805 69.2718 27.1362 70.8089 26.9913 72.326L27.1337 72.6789C21.3222 73.314 15.2323 73.1715 9.92236 70.7281Z"
            fill="#F0F0F0" />
        <path
            d="M0.253685 57.2734C2.7175 61.4339 6.43094 64.713 10.8666 66.6451C11.8194 67.0532 12.8215 67.3844 13.859 67.4777C14.8711 67.5608 15.8869 67.3716 16.8011 66.9299C17.6617 66.5351 18.4962 66.0318 19.4379 65.8529C20.4305 65.6643 21.3983 65.9524 22.1981 66.5515C23.1767 67.2846 23.8333 68.3252 24.4399 69.3651C25.1135 70.5197 25.7948 71.7296 26.9327 72.4909C27.0706 72.5832 26.9193 72.7915 26.7816 72.6994C24.8018 71.3747 24.2364 68.8663 22.5932 67.2335C21.8264 66.4717 20.8252 65.9361 19.7171 66.0698C18.7482 66.1868 17.8872 66.7052 17.0192 67.1124C16.1079 67.54 15.1765 67.7939 14.1625 67.7551C13.1253 67.7153 12.1082 67.4225 11.1491 67.0405C8.98074 66.158 6.96479 64.9404 5.17507 63.4324C3.12292 61.7225 1.37869 59.6746 0.0178436 57.3772C-0.0663308 57.235 0.170067 57.1321 0.253685 57.2734Z"
            fill="white" />
        <path
            d="M9.4017 66.1069C8.97616 66.8063 8.31561 67.3318 7.538 67.5896C6.76039 67.8474 5.91636 67.8207 5.15664 67.5143C5.00313 67.4517 5.0932 67.2105 5.24691 67.2731C5.95383 67.5598 6.74005 67.5846 7.46367 67.3431C8.18729 67.1015 8.80064 66.6095 9.19302 65.9559C9.27845 65.8139 9.48664 65.9657 9.4017 66.1069Z"
            fill="white" />
        <path
            d="M16.391 67.1874C16.0086 65.5585 15.0257 64.1334 13.6382 63.1963C13.5007 63.1035 13.652 62.8952 13.7894 62.9878C15.2314 63.9657 16.2513 65.4508 16.6455 67.1468C16.6829 67.3084 16.4283 67.3482 16.391 67.1874Z"
            fill="white" />
        <path
            d="M3.42756 61.5689C3.64866 61.3325 3.80753 61.045 3.8899 60.7322C3.97228 60.4194 3.97559 60.091 3.89953 59.7765C3.86003 59.6154 4.11472 59.5758 4.15396 59.7359C4.23638 60.0837 4.23228 60.4463 4.14204 60.7922C4.05179 61.138 3.87813 61.4565 3.63623 61.7199C3.61551 61.7466 3.58538 61.7645 3.55197 61.7698C3.51855 61.7751 3.48435 61.7676 3.45633 61.7486C3.4288 61.7285 3.41033 61.6983 3.40494 61.6647C3.39956 61.631 3.40769 61.5966 3.42756 61.5689Z"
            fill="white" />
        <path
            d="M15.1186 44.3751C15.1461 44.475 15.1737 44.5749 15.2032 44.6756C15.5802 46.0169 16.0657 47.3253 16.6548 48.588C16.6988 48.6864 16.7449 48.7854 16.7916 48.8823C18.2434 51.9093 20.2452 54.6408 22.6952 56.9379C23.6709 57.8511 24.7148 58.6887 25.8177 59.4437C27.3411 60.4862 29.0757 61.4955 30.1342 62.9374C30.2463 63.0866 30.349 63.2426 30.4418 63.4045L27.5529 72.4781C27.536 72.4954 27.5211 72.5135 27.5041 72.5309L27.4054 72.8984C27.3457 72.8635 27.2847 72.8259 27.2251 72.791C27.1904 72.7708 27.1564 72.7487 27.1217 72.7285C27.0988 72.7145 27.0759 72.7003 27.0545 72.6889C27.0468 72.6842 27.0392 72.6795 27.0336 72.6755C27.0122 72.6641 26.9934 72.6513 26.974 72.6405C26.6321 72.4316 26.291 72.2199 25.9508 72.0054C25.9487 72.0048 25.9487 72.0048 25.9473 72.0021C23.3594 70.3614 20.8858 68.4904 18.7752 66.3039C18.7117 66.2381 18.6461 66.1718 18.5839 66.1018C17.638 65.111 16.7748 64.0445 16.0028 62.9132C15.5821 62.2923 15.1931 61.6506 14.8373 60.9905C13.9214 59.283 13.28 57.4423 12.9366 55.5357C12.2528 51.7348 12.7934 47.7578 14.9514 44.6137C15.0066 44.5333 15.0613 44.4549 15.1186 44.3751Z"
            fill="#F0F0F0" />
        <path
            d="M15.2281 44.4322C14.6879 49.2359 15.6765 54.0875 18.0536 58.2979C18.5684 59.1969 19.1689 60.064 19.9412 60.7625C20.6991 61.4375 21.6242 61.8975 22.6204 62.0946C23.5454 62.297 24.5151 62.397 25.3749 62.8205C26.281 63.267 26.8801 64.0791 27.1576 65.0385C27.4972 66.2124 27.3942 67.4381 27.2519 68.6332C27.0938 69.9602 26.9086 71.3361 27.3583 72.6284C27.4128 72.7849 27.1664 72.8602 27.112 72.7039C26.3296 70.4555 27.39 68.1125 27.062 65.8206C26.909 64.7512 26.4324 63.7213 25.467 63.1617C24.6229 62.6724 23.623 62.5684 22.6846 62.3715C21.6992 62.1648 20.8025 61.8074 20.0163 61.1665C19.2121 60.5109 18.5764 59.6654 18.0409 58.7836C16.8415 56.7748 15.9657 54.5902 15.4456 52.3097C14.8376 49.7102 14.6792 47.026 14.9773 44.3732C14.9958 44.209 15.2465 44.2691 15.2281 44.4322Z"
            fill="white" />
        <path
            d="M17.2082 56.9872C16.4469 57.2898 15.6027 57.3121 14.8265 57.0502C14.0502 56.7884 13.3924 56.2595 12.9705 55.5578C12.8856 55.4156 13.1029 55.2771 13.1879 55.4196C13.5796 56.0737 14.1924 56.5663 14.9157 56.8087C15.6391 57.051 16.4253 57.0271 17.1326 56.7412C17.2863 56.6792 17.3611 56.9256 17.2082 56.9872Z"
            fill="white" />
        <path
            d="M22.1373 62.0536C22.8137 60.523 22.8878 58.794 22.3448 57.2113C22.2908 57.0545 22.5372 56.9792 22.5911 57.1357C23.1531 58.7838 23.0723 60.583 22.3649 62.1742C22.2974 62.3258 22.0701 62.2044 22.1373 62.0536Z"
            fill="white" />
        <path
            d="M15.1739 49.771C15.4928 49.7152 15.793 49.5812 16.0473 49.381C16.3016 49.1808 16.5022 48.9205 16.631 48.6237C16.6965 48.4713 16.9237 48.5929 16.8586 48.7443C16.7148 49.0716 16.493 49.3587 16.2125 49.5805C15.932 49.8024 15.6013 49.9523 15.2495 50.017C15.2168 50.0259 15.182 50.022 15.1521 50.0062C15.1222 49.9904 15.0995 49.9638 15.0885 49.9318C15.0787 49.8991 15.0821 49.8639 15.0981 49.8338C15.1141 49.8037 15.1413 49.7811 15.1739 49.771Z"
            fill="white" />
        <path
            d="M22.1483 38.4618C17.4563 33.8477 15.4746 29.034 16.5681 24.9076C17.9715 19.6123 24.2059 15.951 33.6727 14.8625L33.7077 15.1663C24.3726 16.2395 18.2333 19.8186 16.864 24.9858C15.7997 29.0016 17.7527 33.7101 22.363 38.244L22.1483 38.4618Z"
            fill="#F0F0F0" />
        <path
            d="M67.4182 54.8405C61.5623 54.8405 55.1988 53.9712 48.8781 52.2996C41.0616 50.2324 33.8948 47.1123 28.1523 43.2764L28.3224 43.0223C34.0372 46.8397 41.1723 49.9456 48.9564 52.0041C55.9908 53.8645 63.0779 54.7265 69.449 54.499L69.46 54.8044C68.7872 54.8286 68.1066 54.8406 67.4182 54.8405Z"
            fill="#F0F0F0" />
        <path
            d="M80.8521 52.9181L80.7541 52.6285C85.9914 50.8596 89.2671 48.0101 90.2272 44.3878C91.4475 39.7829 88.7963 34.4393 82.762 29.3412C76.6969 24.2172 67.9509 19.9656 58.1348 17.3696L58.2131 17.0741C68.0721 19.6814 76.8607 23.9551 82.9595 29.1078C89.0892 34.2864 91.7753 39.7407 90.523 44.466C89.5355 48.1922 86.1913 51.1148 80.8521 52.9181Z"
            fill="#F0F0F0" />
        <path
            d="M32.7614 54.9683C21.2549 49.8703 12.3882 43.2564 7.79492 36.3447L8.04983 36.1755C12.6114 43.0394 21.4315 49.6142 32.8854 54.6888L32.7614 54.9683Z"
            fill="#F0F0F0" />
        <path
            d="M73.218 63.8C72.0312 63.8 70.8241 63.7735 69.5967 63.7205L69.6098 63.4151C78.7694 63.8113 86.8511 62.7163 92.9827 60.2479L93.0971 60.5315C87.7484 62.6845 80.9309 63.8 73.218 63.8Z"
            fill="#F0F0F0" />
        <path
            d="M66.5413 15.1367C64.6395 14.5181 62.6833 13.9422 60.7271 13.4248C49.4699 10.4478 38.4039 9.39078 28.7251 10.3687L28.6943 10.0645C38.4092 9.08337 49.5131 10.1429 60.8054 13.1293C62.7671 13.6481 64.7289 14.2257 66.6361 14.8461L66.5413 15.1367Z"
            fill="#F0F0F0" />
        <path
            d="M14.9569 38.9203C10.2649 34.3062 8.2832 29.4925 9.37673 25.3661C10.7801 20.0708 17.0145 16.4095 26.4813 15.321L26.5163 15.6248C17.1812 16.698 11.0419 20.2771 9.67259 25.4443C8.60834 29.4601 10.5613 34.1686 15.1716 38.7025L14.9569 38.9203Z"
            fill="#F0F0F0" />
        <path
            d="M60.2268 55.299C54.3709 55.299 48.0074 54.4297 41.6867 52.7581C33.8702 50.6909 26.7034 47.5708 20.9609 43.7349L21.131 43.4808C26.8458 47.2982 33.9809 50.4041 41.765 52.4625C48.7994 54.323 55.8865 55.185 62.2576 54.9575L62.2686 55.2629C61.5958 55.2871 60.9152 55.2991 60.2268 55.299Z"
            fill="#F0F0F0" />
        <path
            d="M73.6607 53.3766L73.5627 53.087C78.8 51.3181 82.0757 48.4686 83.0357 44.8463C84.2561 40.2414 81.6049 34.8978 75.5706 29.7997C69.5055 24.6757 60.7595 20.4241 50.9434 17.8281L51.0217 17.5326C60.8807 20.1399 69.6692 24.4136 75.7681 29.5663C81.8978 34.7448 84.5839 40.1992 83.3316 44.9245C82.3441 48.6507 78.9999 51.5733 73.6607 53.3766Z"
            fill="#F0F0F0" />
        <path
            d="M25.57 55.4268C14.0635 50.3288 5.19683 43.7149 0.603516 36.8032L0.858427 36.634C5.41999 43.4979 14.2401 50.0727 25.694 55.1473L25.57 55.4268Z"
            fill="#F0F0F0" />
        <path
            d="M66.0266 64.2586C64.8398 64.2586 63.6327 64.2321 62.4053 64.1792L62.4184 63.8738C71.578 64.2699 79.6597 63.1749 85.7913 60.7065L85.9057 60.9901C80.5569 63.1431 73.7395 64.2586 66.0266 64.2586Z"
            fill="#F0F0F0" />
        <path
            d="M59.3499 15.5952C57.4481 14.9766 55.4919 14.4007 53.5357 13.8833C42.2785 10.9063 31.2125 9.84927 21.5337 10.8272L21.5029 10.523C31.2178 9.54186 42.3217 10.6014 53.614 13.5878C55.5757 14.1066 57.5375 14.6842 59.4447 15.3046L59.3499 15.5952Z"
            fill="#F0F0F0" />
        <path
            d="M28.9499 38.2936C28.3211 38.2943 27.7183 38.5441 27.2737 38.9883C26.8291 39.4324 26.579 40.0346 26.5783 40.6627C25.6766 47.2947 25.3755 53.9944 25.6785 60.6804C25.6965 61.1073 25.7165 61.4978 25.7396 61.8745C25.7733 62.4967 25.816 63.1534 25.8666 63.8269C25.8956 64.2243 25.9263 64.6228 25.9598 65.02C26.016 65.6669 26.0777 66.3242 26.1434 66.9737C26.1846 67.3704 26.2274 67.7691 26.2732 68.1662C26.3612 68.9461 26.4607 69.7455 26.5776 70.6102C26.5764 71.24 26.8257 71.8444 27.2705 72.2906C27.7154 72.7368 28.3195 72.9882 28.9499 72.9896H68.7314C69.3602 72.9889 69.963 72.7391 70.4076 72.2949C70.8522 71.8508 71.1023 71.2486 71.103 70.6205L71.1048 70.6041C71.282 69.7976 71.447 68.9757 71.5954 68.1612C71.6748 67.7318 71.7433 67.3418 71.8048 66.9689C71.9164 66.29 72.0157 65.633 72.0997 65.0161C72.1571 64.6019 72.2091 64.2008 72.2541 63.8235C72.3282 63.206 72.3952 62.5677 72.4589 61.8721C72.4938 61.4941 72.5258 61.1036 72.5568 60.6785V60.6783C73.0432 53.9769 72.5541 47.2403 71.1048 40.6791L71.103 40.6627C71.1023 40.0346 70.8522 39.4324 70.4076 38.9882C69.963 38.5441 69.3602 38.2943 68.7314 38.2936L28.9499 38.2936Z"
            fill="#3F3D56" />
        <path
            d="M50.3853 48.4358C41.7656 48.4358 32.6318 47.6534 20.6778 46.0881H20.6765C20.0568 46.0872 19.4592 45.8579 18.9983 45.444C18.5374 45.0302 18.2456 44.461 18.1789 43.8455C18.168 43.753 18.1628 43.6599 18.1631 43.5667V36.3829C18.1629 36.3676 18.1636 36.3522 18.1652 36.337C18.1787 35.6769 18.4501 35.0483 18.9215 34.5856C19.3929 34.1229 20.0269 33.8628 20.6877 33.861C41.4852 31.0362 54.1189 31.0365 77.0033 33.8616H77.0044C77.6649 33.8659 78.2975 34.1281 78.767 34.5922C79.2365 35.0563 79.5057 35.6854 79.517 36.3452C79.5184 36.3577 79.5189 36.3703 79.5185 36.3829V43.5667C79.5189 43.6601 79.5136 43.7535 79.5027 43.8463C79.435 44.4633 79.1414 45.0336 78.6783 45.4475C78.2152 45.8614 77.6153 46.0898 76.9939 46.0886C67.1068 47.6532 59.0029 48.4358 50.3853 48.4358Z"
            fill="#FFFDFF" />
        <path
            d="M51.768 53.4253H46.538C45.8724 53.4245 45.2342 53.16 44.7635 52.6898C44.2929 52.2196 44.0281 51.5822 44.0273 50.9172V31.9365C44.0281 31.2716 44.2929 30.6341 44.7635 30.1639C45.2342 29.6937 45.8724 29.4292 46.538 29.4285H51.768C52.4336 29.4292 53.0718 29.6937 53.5425 30.1639C54.0132 30.6341 54.278 31.2716 54.2787 31.9365V50.9172C54.278 51.5822 54.0132 52.2197 53.5425 52.6899C53.0718 53.16 52.4336 53.4245 51.768 53.4253Z"
            fill="#3F3D56" />
        <path
            d="M63.6413 25.7965C63.6034 25.4407 63.5367 25.0885 63.4418 24.7434C63.3395 24.3977 63.2098 24.0606 63.0542 23.7353C62.4963 22.5393 61.5553 21.5632 60.3799 20.9613C58.9211 20.2439 57.2523 20.1852 55.6838 20.5309C54.3654 20.8259 53.1273 21.4049 52.056 22.2276C51.5006 22.6456 50.9932 23.1237 50.543 23.6531C50.0783 24.2101 49.2138 25.7405 49.1514 25.8822C48.6627 24.7737 47.9613 23.7715 47.087 22.9321C46.0707 21.9685 44.8576 21.2361 43.531 20.7853C42.8258 20.548 42.0936 20.3993 41.3515 20.3428C40.5663 20.2776 39.7757 20.3465 39.0137 20.5466C37.6448 20.9295 36.4608 21.7941 35.6801 22.9809C34.9361 24.0838 34.5708 25.3982 34.6389 26.7264C34.6766 27.397 34.8213 28.0573 35.0677 28.6822C35.1998 29.0205 35.3564 29.3487 35.5363 29.6642C35.7225 29.9758 35.9307 30.2738 36.1593 30.5558C37.0563 31.6554 38.2645 32.4591 39.626 32.8619C41.0795 33.3106 42.6214 33.3253 44.1161 33.1146C45.651 32.8982 47.1284 32.4019 48.574 31.8583C48.7669 31.7858 48.9589 31.7112 49.1513 31.6373C50.4365 32.1312 51.7325 32.6075 53.0778 32.9098C54.5913 33.275 56.1621 33.3379 57.7 33.095C59.1334 32.86 60.4662 32.2096 61.5329 31.2247C62.5199 30.2968 63.2106 29.0985 63.5186 27.78C63.6706 27.1304 63.712 26.4599 63.6413 25.7965ZM43.7169 31.638C42.8873 31.7442 42.0479 31.7491 41.2171 31.6526C40.6217 31.5664 40.0383 31.4113 39.4788 31.1904C38.1599 30.6417 37.1085 29.599 36.5498 28.2854C36.3829 27.8713 36.264 27.4395 36.1954 26.9984C36.1515 26.6059 36.1513 26.2097 36.195 25.8172C36.2601 25.4043 36.3716 25 36.5274 24.612C36.696 24.2346 36.9052 23.8768 37.1515 23.5448C37.3903 23.2477 37.6601 22.977 37.9564 22.7371C38.2373 22.5296 38.5396 22.3526 38.8581 22.2093C39.2383 22.061 39.6338 21.9553 40.0374 21.8942C40.584 21.8337 41.1359 21.838 41.6815 21.907C42.3308 22.0071 42.9663 22.1821 43.5752 22.4284C44.2229 22.7093 44.835 23.0658 45.3987 23.4905C45.9203 23.9033 46.3931 24.3741 46.8078 24.8939C47.2186 25.4396 47.563 26.032 47.8339 26.6588C48.0971 27.3128 48.2821 27.9955 48.3848 28.6929L48.386 28.7031C48.3459 29.0534 48.3258 29.4058 48.3259 29.7585C48.3262 29.8943 48.3321 30.03 48.339 30.1656C48.2744 30.2278 48.2205 30.3002 48.1796 30.3799C47.1138 30.7976 46.0213 31.1437 44.9093 31.4159C44.5152 31.5068 44.1177 31.5808 43.7169 31.638ZM62.1105 26.9983C62.042 27.4395 61.923 27.8714 61.756 28.2856C61.2001 29.6009 60.1478 30.6445 58.8271 31.1904C58.2676 31.4113 57.6842 31.5664 57.0888 31.6526C56.2565 31.7493 55.4155 31.7442 54.5845 31.6375C53.1083 31.4266 51.6843 30.9611 50.2914 30.4417C50.2341 30.4203 50.1772 30.3977 50.1199 30.3762C50.0811 30.2976 50.0295 30.226 49.9674 30.1642C49.9919 29.6721 49.9766 29.1787 49.9217 28.6891C50.0246 27.993 50.2093 27.3116 50.4721 26.6588C50.7429 26.0321 51.0873 25.4396 51.498 24.894C51.9128 24.3742 52.3856 23.9033 52.9072 23.4905C53.4709 23.0658 54.083 22.7093 54.7307 22.4284C55.3396 22.1821 55.9751 22.0071 56.6244 21.907C57.17 21.838 57.7219 21.8337 58.2685 21.8942C58.6721 21.9553 59.0676 22.061 59.4478 22.2093C59.7664 22.3526 60.0687 22.5296 60.3496 22.7372C60.6459 22.977 60.9157 23.2478 61.1545 23.5448C61.4007 23.8768 61.61 24.2347 61.7785 24.612C61.9343 25 62.0458 25.4043 62.1109 25.8172C62.1546 26.2097 62.1545 26.6058 62.1105 26.9983Z"
            fill="#3F3D56" />
        <path
            d="M33.2335 54.2659C33.7405 54.2659 34.1515 53.8553 34.1515 53.3488C34.1515 52.8424 33.7405 52.4318 33.2335 52.4318C32.7264 52.4318 32.3154 52.8424 32.3154 53.3488C32.3154 53.8553 32.7264 54.2659 33.2335 54.2659Z"
            fill="#FFFDFF" />
        <path
            d="M39.8135 51.9733C40.3206 51.9733 40.7316 51.5627 40.7316 51.0562C40.7316 50.5497 40.3206 50.1392 39.8135 50.1392C39.3065 50.1392 38.8955 50.5497 38.8955 51.0562C38.8955 51.5627 39.3065 51.9733 39.8135 51.9733Z"
            fill="#FFFDFF" />
        <path
            d="M36.9063 59.157C37.4133 59.157 37.8244 58.7464 37.8244 58.2399C37.8244 57.7335 37.4133 57.3229 36.9063 57.3229C36.3993 57.3229 35.9883 57.7335 35.9883 58.2399C35.9883 58.7464 36.3993 59.157 36.9063 59.157Z"
            fill="#FFFDFF" />
        <path
            d="M64.1407 54.2659C64.6477 54.2659 65.0587 53.8553 65.0587 53.3488C65.0587 52.8424 64.6477 52.4318 64.1407 52.4318C63.6337 52.4318 63.2227 52.8424 63.2227 53.3488C63.2227 53.8553 63.6337 54.2659 64.1407 54.2659Z"
            fill="#FFFDFF" />
        <path
            d="M57.5616 51.9733C58.0686 51.9733 58.4796 51.5627 58.4796 51.0562C58.4796 50.5497 58.0686 50.1392 57.5616 50.1392C57.0546 50.1392 56.6436 50.5497 56.6436 51.0562C56.6436 51.5627 57.0546 51.9733 57.5616 51.9733Z"
            fill="#FFFDFF" />
        <path
            d="M60.4688 59.157C60.9758 59.157 61.3869 58.7464 61.3869 58.2399C61.3869 57.7335 60.9758 57.3229 60.4688 57.3229C59.9618 57.3229 59.5508 57.7335 59.5508 58.2399C59.5508 58.7464 59.9618 59.157 60.4688 59.157Z"
            fill="#FFFDFF" />
        <path
            d="M64.9063 70.3147C65.4133 70.3147 65.8243 69.9042 65.8243 69.3977C65.8243 68.8912 65.4133 68.4806 64.9063 68.4806C64.3993 68.4806 63.9883 68.8912 63.9883 69.3977C63.9883 69.9042 64.3993 70.3147 64.9063 70.3147Z"
            fill="#FFFDFF" />
        <path
            d="M67.2012 63.7424C67.7083 63.7424 68.1193 63.3318 68.1193 62.8253C68.1193 62.3188 67.7083 61.9082 67.2012 61.9082C66.6942 61.9082 66.2832 62.3188 66.2832 62.8253C66.2832 63.3318 66.6942 63.7424 67.2012 63.7424Z"
            fill="#FFFDFF" />
        <path
            d="M60.0098 66.6464C60.5169 66.6464 60.9279 66.2358 60.9279 65.7293C60.9279 65.2228 60.5169 64.8123 60.0098 64.8123C59.5028 64.8123 59.0918 65.2228 59.0918 65.7293C59.0918 66.2358 59.5028 66.6464 60.0098 66.6464Z"
            fill="#FFFDFF" />
        <path
            d="M38.5889 70.3147C39.096 70.3147 39.507 69.9042 39.507 69.3977C39.507 68.8912 39.096 68.4806 38.5889 68.4806C38.0819 68.4806 37.6709 68.8912 37.6709 69.3977C37.6709 69.9042 38.0819 70.3147 38.5889 70.3147Z"
            fill="#FFFDFF" />
        <path
            d="M40.8839 63.7424C41.3909 63.7424 41.8019 63.3318 41.8019 62.8253C41.8019 62.3188 41.3909 61.9082 40.8839 61.9082C40.3768 61.9082 39.9658 62.3188 39.9658 62.8253C39.9658 63.3318 40.3768 63.7424 40.8839 63.7424Z"
            fill="#FFFDFF" />
        <path
            d="M33.6924 66.6464C34.1995 66.6464 34.6105 66.2358 34.6105 65.7293C34.6105 65.2228 34.1995 64.8123 33.6924 64.8123C33.1854 64.8123 32.7744 65.2228 32.7744 65.7293C32.7744 66.2358 33.1854 66.6464 33.6924 66.6464Z"
            fill="#FFFDFF" />
        <path
            d="M60.0705 5.54473C60.4181 5.68969 60.7972 5.74277 61.1714 5.69887C61.5455 5.65496 61.902 5.51554 62.2065 5.29405C62.9829 4.71561 63.2739 3.7059 63.5177 2.7697L64.2379 0L63.0216 0.737674C62.1469 1.26807 61.2521 1.81603 60.6207 2.62126C59.9893 3.42648 59.6699 4.55487 60.086 5.48928"
            fill="#F2F2F2" />
        <path
            d="M27.5397 29.2035C27.7745 28.9092 27.9294 28.5595 27.9896 28.188C28.0498 27.8166 28.0132 27.4359 27.8834 27.0826C27.5391 26.1783 26.6467 25.6221 25.8121 25.1315L23.3428 23.681L23.7199 25.0516C23.9909 26.0373 24.2734 27.047 24.8757 27.8742C25.4781 28.7013 26.477 29.3173 27.4905 29.1734"
            fill="#F2F2F2" />
        <path
            d="M85.5289 71.8474C85.7637 71.5532 85.9187 71.2034 85.9789 70.832C86.0391 70.4605 86.0025 70.0798 85.8726 69.7265C85.5284 68.8222 84.636 68.266 83.8014 67.7754L81.332 66.325L81.7091 67.6955C81.9802 68.6812 82.2627 69.6909 82.865 70.5181C83.4673 71.3452 84.4662 71.9612 85.4798 71.8173"
            fill="#F2F2F2" />
        <path
            d="M38.8949 17.7358C39.571 17.7358 40.119 17.1884 40.119 16.5131C40.119 15.8377 39.571 15.2903 38.8949 15.2903C38.2189 15.2903 37.6709 15.8377 37.6709 16.5131C37.6709 17.1884 38.2189 17.7358 38.8949 17.7358Z"
            fill="#FD6584" />
        <path
            d="M6.3051 53.8074C6.98113 53.8074 7.52915 53.2599 7.52915 52.5846C7.52915 51.9093 6.98113 51.3618 6.3051 51.3618C5.62908 51.3618 5.08105 51.9093 5.08105 52.5846C5.08105 53.2599 5.62908 53.8074 6.3051 53.8074Z"
            fill="#FD6584" />
        <path
            d="M90.4584 43.8724C91.1344 43.8724 91.6825 43.325 91.6825 42.6496C91.6825 41.9743 91.1344 41.4269 90.4584 41.4269C89.7824 41.4269 89.2344 41.9743 89.2344 42.6496C89.2344 43.325 89.7824 43.8724 90.4584 43.8724Z"
            fill="#FD6584" />
        <path
            d="M5.08049 23.0854C5.75652 23.0854 6.30454 22.538 6.30454 21.8627C6.30454 21.1873 5.75652 20.6399 5.08049 20.6399C4.40447 20.6399 3.85645 21.1873 3.85645 21.8627C3.85645 22.538 4.40447 23.0854 5.08049 23.0854Z"
            fill="#E6E6E6" />
        <path
            d="M80.8188 57.9342C81.4948 57.9342 82.0428 57.3867 82.0428 56.7114C82.0428 56.0361 81.4948 55.4886 80.8188 55.4886C80.1427 55.4886 79.5947 56.0361 79.5947 56.7114C79.5947 57.3867 80.1427 57.9342 80.8188 57.9342Z"
            fill="#E6E6E6" />
        <path
            d="M83.267 20.7927C83.943 20.7927 84.4911 20.2453 84.4911 19.5699C84.4911 18.8946 83.943 18.3472 83.267 18.3472C82.591 18.3472 82.043 18.8946 82.043 19.5699C82.043 20.2453 82.591 20.7927 83.267 20.7927Z"
            fill="#E6E6E6" />
        <path
            d="M29.5967 40.2402C29.4909 40.4074 29.2343 40.3831 29.0903 40.2785C28.8903 40.1334 28.955 39.8539 29.0927 39.6888C29.5304 39.1639 30.2543 39.7181 30.352 40.2393C30.3883 40.4935 30.3491 40.7527 30.2393 40.9848C30.1295 41.217 29.9539 41.4118 29.7343 41.5451C29.2349 41.8408 28.5862 41.6925 28.1569 41.3387C27.2612 40.6006 27.5051 39.1229 28.4999 38.589C29.1348 38.2482 29.9375 38.3978 30.5629 38.6832C31.267 39.0045 31.8724 39.497 32.5234 39.9076C33.952 40.8009 35.568 41.3521 37.2451 41.5182C37.5387 41.5481 37.5366 41.0893 37.2451 41.0596C36.3157 40.9637 35.4033 40.7442 34.5321 40.407C33.67 40.058 32.8518 39.6094 32.0942 39.0704C31.3276 38.5455 30.5267 38.0355 29.578 37.9488C29.1951 37.9041 28.8073 37.9615 28.4538 38.1152C28.1004 38.2688 27.794 38.5132 27.5658 38.8235C27.3627 39.1011 27.2269 39.422 27.1687 39.7608C27.1106 40.0997 27.1318 40.4475 27.2307 40.7768C27.35 41.1212 27.5584 41.4278 27.8348 41.6656C28.1113 41.9033 28.4458 42.0637 28.8044 42.1303C29.1497 42.1954 29.5066 42.1513 29.8256 42.0041C30.1445 41.8569 30.4095 41.614 30.5836 41.3091C30.9328 40.7058 30.9215 39.8954 30.394 39.3953C30.2429 39.2418 30.0536 39.1311 29.8456 39.0746C29.6376 39.0181 29.4183 39.0177 29.2101 39.0736C29.0183 39.1383 28.8495 39.2575 28.7244 39.4165C28.5993 39.5756 28.5234 39.7676 28.5058 39.9691C28.4549 40.7521 29.5677 41.1438 29.993 40.4716C30.1513 40.2215 29.7543 39.9911 29.5967 40.2402Z"
            fill="#3F3D56" />
        <path
            d="M68.8493 40.2402C68.9551 40.4074 69.2117 40.3831 69.3557 40.2785C69.5557 40.1334 69.491 39.8539 69.3533 39.6888C68.9156 39.1639 68.1917 39.7181 68.094 40.2393C68.0577 40.4935 68.0969 40.7527 68.2067 40.9848C68.3165 41.217 68.4921 41.4118 68.7117 41.5451C69.2111 41.8408 69.8598 41.6925 70.2891 41.3387C71.1848 40.6006 70.9409 39.1229 69.9461 38.589C69.3112 38.2482 68.5085 38.3978 67.8831 38.6832C67.179 39.0045 66.5736 39.497 65.9226 39.9076C64.494 40.8009 62.878 41.3521 61.2009 41.5182C60.9073 41.5481 60.9094 41.0893 61.2009 41.0596C62.1303 40.9637 63.0427 40.7442 63.9139 40.407C64.776 40.058 65.5942 39.6094 66.3518 39.0704C67.1184 38.5455 67.9193 38.0355 68.868 37.9488C69.2509 37.9041 69.6387 37.9615 69.9922 38.1152C70.3456 38.2688 70.652 38.5132 70.8802 38.8235C71.0833 39.1011 71.2191 39.422 71.2773 39.7608C71.3354 40.0997 71.3142 40.4475 71.2152 40.7768C71.096 41.1212 70.8876 41.4278 70.6112 41.6656C70.3347 41.9033 70.0002 42.0637 69.6416 42.1303C69.2963 42.1954 68.9394 42.1513 68.6204 42.0041C68.3015 41.8569 68.0365 41.614 67.8624 41.3091C67.5132 40.7058 67.5245 39.8954 68.052 39.3953C68.2031 39.2418 68.3924 39.1311 68.6004 39.0746C68.8084 39.0181 69.0277 39.0177 69.2359 39.0736C69.4277 39.1383 69.5965 39.2575 69.7216 39.4165C69.8467 39.5756 69.9226 39.7676 69.9402 39.9691C69.9911 40.7521 68.8783 41.1438 68.453 40.4716C68.2947 40.2215 68.6917 39.9911 68.8493 40.2402Z"
            fill="#3F3D56" />
        <path d="M13.6227 5.55786L13.0163 6.31775L10.8721 5.05066L11.4783 4.29077L13.6227 5.55786Z"
            fill="#E4E4E4" />
        <path d="M15.86 8.82275L16.3955 9.62108L14.1429 10.7403L13.6074 9.94216L15.86 8.82275Z"
            fill="#E4E4E4" />
        <path d="M18.1916 5.35217L19.2617 5.39005L19.1552 7.62675L18.085 7.58901L18.1916 5.35217Z"
            fill="#E4E4E4" />
        <path d="M89.3609 52.3287L88.7546 53.0886L86.6104 51.8215L87.2167 51.0616L89.3609 52.3287Z"
            fill="#E4E4E4" />
        <path d="M91.5983 55.5935L92.1338 56.3918L89.8812 57.5111L89.3457 56.7128L91.5983 55.5935Z"
            fill="#E4E4E4" />
        <path d="M93.9299 52.123L95 52.1609L94.8935 54.3976L93.8232 54.3599L93.9299 52.123Z"
            fill="#E4E4E4" />
    </g>
    <defs>
        <clipPath id="clip0_261_987">
            <rect width="95" height="73" fill="white" />
        </clipPath>
    </defs>
</svg>
