<svg width="144" height="105" viewBox="0 0 144 105" fill="none" xmlns="http://www.w3.org/2000/svg">
    <g clip-path="url(#clip0_265_5793)">
        <path
            d="M144 57.8103C144 57.9123 143.918 57.995 143.817 57.995H0V57.6256H143.817C143.918 57.6256 144 57.7083 144 57.8103Z"
            fill="#E6E6E6" />
        <path
            d="M47.2875 12.9573C50.2892 12.9573 52.7225 10.505 52.7225 7.47991C52.7225 4.45485 50.2892 2.00256 47.2875 2.00256C44.2859 2.00256 41.8525 4.45485 41.8525 7.47991C41.8525 10.505 44.2859 12.9573 47.2875 12.9573Z"
            fill="#FFB6B6" />
        <path
            d="M50.1674 14.113L43.0135 16.1729L41.9915 18.4903L39.6921 29.5623V47.0714C39.6921 47.0714 36.8816 53.2511 38.4146 58.6584C40.0532 64.4382 45.8239 57.6163 50.1674 58.3948C54.5108 59.1733 61.4092 59.9458 61.4092 59.9458L57.3212 41.1492L56.2992 18.2328L50.1674 14.113Z"
            fill="#E6E6E6" />
        <path
            d="M48.8179 9.27359L47.7129 8.7168C47.7129 8.7168 47.4367 6.2112 46.8842 5.6544C46.3317 5.0976 46.3317 4.8192 46.3317 4.8192L47.1604 3.7056C47.1604 3.7056 43.0167 5.9328 42.188 4.5408C41.3593 3.14881 42.4642 2.59201 42.4642 2.59201L41.083 1.47841C41.083 1.47841 42.7405 2.59201 43.0167 1.75681C43.293 0.92161 44.9504 0.354946 44.9504 0.354946C44.9504 0.354946 48.5699 1.18028 48.2795 0.354946C47.9891 -0.470387 49.0941 0.364812 49.3704 0.643211C49.6466 0.92161 52.1328 3.7056 52.4091 3.42721C52.6853 3.14881 54.0665 3.984 53.7903 4.2624C53.5141 4.54081 53.5141 4.8192 53.7903 5.0976C54.0665 5.37601 55.724 8.4384 54.3428 9.552C52.9616 10.6656 51.0278 12.0576 51.3041 13.1712C51.5803 14.2848 51.3041 9.55199 48.8179 9.27359Z"
            fill="#2F2E41" />
        <path
            d="M22.0259 23.0641C20.6309 21.8522 20.1207 20.1445 20.8861 19.2499C21.6515 18.3554 23.4025 18.6128 24.7978 19.8253C25.3618 20.3019 25.8043 20.9078 26.0883 21.5921L31.9345 26.8021L29.45 29.5148L23.9505 24.0907C23.2368 23.9083 22.5769 23.5563 22.0259 23.0641Z"
            fill="#FFB6B6" />
        <path
            d="M42.0528 18.5789L45.9037 18.2261L49.2809 34.4582C49.9244 37.5511 47.9126 40.5708 44.8284 41.1414L42.0528 41.6548L24.3623 25.9575L26.9469 21.6153L39.9928 29.8626L42.0528 18.5789Z"
            fill="#E6E6E6" />
        <path
            d="M33.4557 90.7649C33.4557 90.7649 30.4014 96.4815 30.6196 96.2616C30.8377 96.0418 34.5466 97.361 34.5466 97.361L36.7283 91.6444L33.4557 90.7649Z"
            fill="#FFB6B6" />
        <path
            d="M28.9472 50.7496C28.9472 50.7496 27.3837 57.0482 27.5415 56.781C27.6992 56.5137 31.6162 56.8719 31.6162 56.8719L32.3339 50.7899L28.9472 50.7496Z"
            fill="#FFB6B6" />
        <path
            d="M56.1449 49.6905C49.2425 50.6677 43.0079 49.8157 37.9279 45.8015C37.9279 45.8015 34.219 58.3341 40.9822 59.6533C47.7455 60.9725 55.2723 58.7051 56.1449 56.5064C57.0176 54.3077 56.1449 49.6905 56.1449 49.6905Z"
            fill="#2F2E41" />
        <path
            d="M43.2734 53.6482L35.7466 71.5264L32.2559 92.1941L36.8374 93.2935L45.0325 74.2747L56.1453 56.0668L43.2734 53.6482Z"
            fill="#2F2E41" />
        <path
            d="M42.2913 48.5499C42.2913 48.5499 40.546 34.918 37.2734 34.0385C35.6781 33.6098 34.1864 33.6513 33.0765 33.8065C31.9578 33.9629 31.066 34.8243 30.8704 35.9453L27.8965 52.9886H32.1018L33.4555 48.3713L37.0553 54.7063L42.2913 48.5499Z"
            fill="#2F2E41" />
        <path
            d="M31.6012 55.146L27.4431 54.7062L26.8015 57.1248C26.8015 57.1248 20.0382 63.2811 23.5289 63.7209C27.0196 64.1606 30.2922 61.7421 30.2922 61.7421L35.094 58.966C35.094 58.966 33.2374 53.9779 31.9284 53.9779C30.6194 53.9779 31.6012 55.146 31.6012 55.146Z"
            fill="#2F2E41" />
        <path
            d="M33.7828 96.3716L29.6247 95.9318L28.9831 98.3504C28.9831 98.3504 22.2199 104.507 25.7106 104.946C29.2013 105.386 32.4738 102.968 32.4738 102.968L37.2757 100.192C37.2757 100.192 36.9463 94.9836 35.6372 94.9836C34.3282 94.9836 33.7828 96.3716 33.7828 96.3716Z"
            fill="#2F2E41" />
        <path
            d="M54.8367 63.0868C54.3353 64.8197 53.0417 65.9636 51.9475 65.6419C50.8533 65.3202 50.3729 63.6548 50.8747 61.9213C51.0657 61.2261 51.4191 60.5871 51.9054 60.0578L54.1216 52.7426L57.5058 53.8639L54.9616 60.9564C55.0894 61.6664 55.0466 62.3969 54.8367 63.0868Z"
            fill="#FFB6B6" />
        <path
            d="M57.1793 18.2646L55.4147 17.7631C53.7508 21.0994 53.0353 24.8347 53.3474 28.5556L54.2183 38.9379L51.3447 57.1866L56.977 58.655L61.4154 35.7538L57.1793 18.2646Z"
            fill="#E6E6E6" />
        <path
            d="M22.8265 46.7961C22.7492 46.5578 22.1636 46.6627 22.1073 46.4496C22.0513 46.2372 22.6133 46.0591 23.0443 45.4606C23.1221 45.3527 23.6119 44.6725 23.424 44.3864C23.0679 43.8442 20.5904 45.1947 19.9957 44.4368C19.8652 44.2705 19.8115 43.985 19.4227 43.4536C19.268 43.2422 19.1688 43.1401 19.0502 43.1431C18.882 43.1474 18.8218 43.3595 18.5574 43.7437C18.1608 44.32 18.0177 44.2476 17.7565 44.7197C17.5626 45.0702 17.5396 45.2941 17.3997 45.3073C17.2019 45.326 17.1201 44.8897 16.8783 44.8727C16.6315 44.8555 16.3846 45.2866 16.2622 45.6235C16.0325 46.2556 16.1747 46.7388 16.2063 47.2204C16.2406 47.7437 16.1601 48.5097 15.5959 49.4929L10.2744 58.0374C11.4173 56.2956 14.6613 51.5456 15.9684 49.8033C16.3457 49.3004 16.7512 48.7953 17.3753 48.7003C17.9761 48.6088 18.7072 48.9084 19.7277 48.891C19.8468 48.8889 20.1785 48.879 20.2592 48.7018C20.3259 48.5554 20.1603 48.428 20.2205 48.2904C20.3013 48.1057 20.6649 48.1849 21.1603 48.0623C21.5097 47.9758 21.747 47.8329 21.9512 47.71C22.0127 47.673 22.9294 47.1133 22.8265 46.7961Z"
            fill="#F2F2F2" />
        <path
            d="M8.88833 48.791C8.74998 48.7605 8.63209 49.0805 8.51206 49.0468C8.39246 49.0132 8.46789 48.6839 8.30077 48.298C8.27064 48.2284 8.08071 47.7898 7.88718 47.8002C7.52036 47.8199 7.46324 49.435 6.92256 49.5105C6.8039 49.5271 6.64934 49.4713 6.27837 49.5103C6.13079 49.5258 6.05246 49.5454 6.01972 49.6049C5.97326 49.6894 6.05919 49.7804 6.17001 50.022C6.33622 50.3844 6.25969 50.4343 6.41425 50.6997C6.52898 50.8968 6.63141 50.9728 6.59749 51.0457C6.54949 51.149 6.31339 51.0636 6.23537 51.1783C6.15577 51.2954 6.29451 51.5419 6.42324 51.6996C6.66483 51.9956 6.94118 52.0647 7.18479 52.188C7.44953 52.3221 7.79938 52.5829 8.11542 53.1456L10.7413 58.2432C10.2227 57.1753 8.84547 54.2002 8.37407 53.051C8.23799 52.7192 8.10903 52.3729 8.24283 52.0368C8.37164 51.7132 8.72849 51.438 9.01443 50.9283C9.04782 50.8687 9.13868 50.7018 9.07568 50.6108C9.0236 50.5355 8.9138 50.5807 8.86413 50.5112C8.79751 50.4179 8.94099 50.261 9.02421 49.9805C9.0829 49.7828 9.08179 49.6241 9.08084 49.4877C9.08055 49.4466 9.0725 48.8317 8.88833 48.791Z"
            fill="#F2F2F2" />
        <path
            d="M11.5078 50.0348L11.5903 49.2668L11.641 49.2185C11.8752 48.9955 12.0217 48.7591 12.0767 48.5159C12.0854 48.4772 12.0922 48.4381 12.0991 48.3983C12.1265 48.2404 12.1605 48.0441 12.3112 47.8402C12.3955 47.7266 12.6185 47.4699 12.8485 47.5595C12.9106 47.583 12.9525 47.6235 12.9816 47.6665C12.9889 47.6591 12.9964 47.6516 13.0044 47.6436C13.1037 47.5463 13.1732 47.5106 13.2402 47.4763C13.2916 47.4499 13.3448 47.4227 13.4347 47.3502C13.4741 47.3185 13.5057 47.2899 13.5323 47.2659C13.613 47.1932 13.7162 47.1082 13.8576 47.1419C14.0075 47.1832 14.0589 47.3273 14.093 47.4227C14.1539 47.5928 14.1726 47.7098 14.185 47.7874C14.1895 47.8158 14.1947 47.8477 14.1986 47.8581C14.2314 47.9414 14.6433 47.963 14.7982 47.972C15.1465 47.991 15.4479 48.0075 15.5204 48.2479C15.5724 48.4198 15.464 48.6074 15.189 48.8201C15.1033 48.8863 15.0176 48.932 14.943 48.9661C14.9889 49.0099 15.0255 49.0693 15.0277 49.1504C15.0327 49.3421 14.8376 49.4893 14.4476 49.5885C14.3507 49.6134 14.2204 49.6464 14.0498 49.6381C13.9695 49.6341 13.8991 49.6217 13.8391 49.6101C13.8302 49.6446 13.8138 49.6804 13.7842 49.7144C13.6974 49.8145 13.5573 49.8399 13.367 49.7835C13.157 49.7245 12.991 49.6443 12.8446 49.5738C12.7167 49.5124 12.6064 49.4599 12.5138 49.4455C12.3417 49.4213 12.1812 49.5284 11.9891 49.6709L11.5078 50.0348Z"
            fill="#F2F2F2" />
        <path
            d="M12.8815 45.6605L12.1234 45.7748L12.0643 45.7377C11.7907 45.566 11.5267 45.4831 11.2793 45.4912C11.24 45.4925 11.2007 45.4958 11.1607 45.4992C11.0022 45.5125 10.8052 45.5291 10.5713 45.434C10.4409 45.3806 10.1379 45.2284 10.1656 44.9814C10.1724 44.9149 10.2007 44.8638 10.2346 44.8245C10.2256 44.8193 10.2165 44.8139 10.2067 44.8081C10.0882 44.736 10.0363 44.6772 9.98638 44.6207C9.94798 44.5772 9.90842 44.5323 9.81607 44.4631C9.77557 44.4327 9.74011 44.4092 9.7103 44.3893C9.62012 44.3291 9.51232 44.25 9.50879 44.1036C9.5104 43.947 9.63567 43.8604 9.71858 43.8029C9.86645 43.7004 9.97401 43.6525 10.0453 43.6207C10.0714 43.6091 10.1008 43.596 10.1097 43.5895C10.1814 43.5364 10.0976 43.1295 10.0669 42.9761C9.99688 42.6317 9.93624 42.3337 10.1486 42.2021C10.3004 42.1078 10.5079 42.1659 10.7819 42.3801C10.8672 42.4468 10.9328 42.5187 10.9844 42.5828C11.0148 42.527 11.0626 42.4763 11.1398 42.4535C11.3226 42.4 11.5133 42.5529 11.7075 42.9079C11.756 42.996 11.8207 43.1147 11.856 43.2831C11.8725 43.3624 11.8784 43.4342 11.8825 43.4956C11.9179 43.4956 11.9564 43.5025 11.9965 43.5227C12.1146 43.5819 12.1746 43.7121 12.1687 43.9118C12.1654 44.1316 12.1305 44.3137 12.0999 44.4743C12.0734 44.6146 12.051 44.7354 12.0607 44.8293C12.0811 45.0032 12.2246 45.1325 12.4101 45.2836L12.8815 45.6605Z"
            fill="#F2F2F2" />
        <path
            d="M12.9834 43.3663L13.0659 42.5983L13.1166 42.5501C13.3508 42.327 13.4973 42.0907 13.5522 41.8474C13.561 41.8088 13.5678 41.7697 13.5747 41.7298C13.6021 41.5719 13.6361 41.3756 13.7868 41.1717C13.8711 41.0581 14.0941 40.8014 14.3241 40.8911C14.3862 40.9145 14.4281 40.9551 14.4572 40.9981C14.4645 40.9906 14.472 40.9832 14.48 40.9751C14.5793 40.8778 14.6488 40.8422 14.7158 40.8078C14.7672 40.7814 14.8203 40.7542 14.9102 40.6818C14.9497 40.65 14.9813 40.6214 15.0079 40.5974C15.0886 40.5248 15.1918 40.4397 15.3332 40.4734C15.4831 40.5147 15.5345 40.6588 15.5686 40.7542C15.6295 40.9243 15.6482 41.0414 15.6606 41.119C15.6651 41.1473 15.6703 41.1792 15.6742 41.1896C15.707 41.273 16.1188 41.2945 16.2738 41.3035C16.6221 41.3226 16.9235 41.339 16.996 41.5794C17.048 41.7514 16.9396 41.9389 16.6646 42.1517C16.5789 42.2179 16.4932 42.2635 16.4186 42.2977C16.4645 42.3414 16.501 42.4009 16.5033 42.4819C16.5083 42.6737 16.3131 42.8209 15.9232 42.9201C15.8263 42.945 15.696 42.978 15.5254 42.9696C15.4451 42.9656 15.3747 42.9532 15.3147 42.9417C15.3058 42.9761 15.2894 43.0119 15.2598 43.0459C15.173 43.146 15.0328 43.1715 14.8426 43.1151C14.6326 43.0561 14.4666 42.9758 14.3202 42.9053C14.1922 42.8439 14.082 42.7914 13.9894 42.7771C13.8173 42.7528 13.6568 42.8599 13.4647 43.0024L12.9834 43.3663Z"
            fill="#F2F2F2" />
        <path
            d="M10.5258 58.0811L10.3917 57.9477L10.2054 57.9278C10.2063 57.9102 10.2051 57.8689 10.2037 57.8044C10.1966 57.4511 10.1743 56.3759 10.3229 54.7238C10.4266 53.5706 10.6 52.3999 10.8381 51.2438C11.0767 50.0859 11.3243 49.2244 11.5231 48.532C11.6732 48.0097 11.8246 47.5143 11.9725 47.0318C12.3671 45.7426 12.7397 44.5249 12.9704 43.1358C13.0221 42.8258 13.1293 42.1803 12.9097 41.4185C12.7824 40.9767 12.5643 40.5608 12.2613 40.1828L12.5545 39.9441C12.8889 40.3618 13.13 40.8224 13.2715 41.313C13.5149 42.1576 13.3981 42.8609 13.342 43.1989C13.1071 44.6124 12.7308 45.8419 12.3324 47.1435C12.1852 47.6242 12.0343 48.1174 11.8849 48.6376C11.6878 49.3236 11.4425 50.1777 11.207 51.3207C10.9716 52.4629 10.8004 53.6193 10.6978 54.758C10.5512 56.3892 10.5733 57.4484 10.5805 57.7964C10.5842 57.9822 10.585 58.0211 10.5258 58.0811Z"
            fill="#F2F2F2" />
        <path
            d="M11.4571 40.6199C11.442 40.6165 11.4268 40.6127 11.4117 40.6081C11.1024 40.5208 10.8543 40.2668 10.6741 39.8533C10.5897 39.6589 10.5698 39.4543 10.5301 39.0462C10.5239 38.9833 10.4964 38.6649 10.5302 38.243C10.5522 37.9672 10.5816 37.8565 10.6561 37.7696C10.7388 37.6727 10.8502 37.6172 10.9679 37.5894C10.9711 37.5529 10.9829 37.5172 11.0064 37.4833C11.1032 37.3429 11.2653 37.4006 11.3533 37.4307C11.3976 37.4467 11.4528 37.4671 11.5149 37.4776C11.6125 37.4946 11.6708 37.4773 11.759 37.4516C11.8434 37.4269 11.9484 37.3962 12.0935 37.3988C12.3798 37.4027 12.5917 37.5324 12.6616 37.5751C13.0296 37.7979 13.1567 38.1535 13.3037 38.5652C13.3329 38.6477 13.4299 38.946 13.4525 39.3301C13.4688 39.6072 13.4327 39.7206 13.3914 39.8017C13.307 39.9685 13.1778 40.0458 12.8571 40.2084C12.5221 40.3788 12.354 40.4641 12.2162 40.5079C11.8954 40.6094 11.694 40.6731 11.4571 40.6199Z"
            fill="#F2F2F2" />
        <path
            d="M97.4629 8.47449C97.4629 8.47449 99.5435 9.70419 98.8612 10.9203C98.1788 12.1364 97.2275 13.7928 97.8729 14.3145C98.5182 14.8362 99.5837 17.1363 99.5837 17.1363C99.5837 17.1363 104.132 16.4962 103.705 20.0564C103.278 23.6167 101.141 24.1021 102.972 25.6683C104.804 27.2346 101.069 29.1078 101.069 29.1078C101.069 29.1078 98.4911 28.2981 97.9029 25.8083C97.3147 23.3185 98.4272 27.7121 98.0541 28.0271C97.681 28.3421 96.2323 30.4186 95.2071 27.6578C94.182 24.897 95.1971 23.8265 93.8426 22.1971C92.488 20.5677 91.5671 17.9322 91.6074 17.4715C91.6477 17.0108 90.0579 12.8069 92.505 11.1674C94.952 9.52795 97.4629 8.47449 97.4629 8.47449Z"
            fill="#2F2E41" />
        <path
            d="M117.957 47.1034C119.165 48.111 120.66 48.2995 121.296 47.5246C121.932 46.7498 121.469 45.3051 120.26 44.2974C119.783 43.8881 119.215 43.6 118.605 43.4572L113.433 39.2533L111.527 41.7413L116.828 45.6214C117.082 46.1992 117.469 46.7074 117.957 47.1034Z"
            fill="#FFB6B6" />
        <path
            d="M102.457 24.1764C102.457 24.1764 98.3983 21.4409 97.0693 22.7823C95.7402 24.1236 96.0576 27.4739 96.0576 27.4739L106.701 39.9748L115.141 45.3813L117.404 41.81L110.308 35.4292L102.457 24.1764Z"
            fill="#3F3D56" />
        <path d="M96.5074 18.2509L97.98 23.526H89.8975L92.559 17.0262L96.5074 18.2509Z"
            fill="#FFB6B6" />
        <path opacity="0.1"
            d="M96.5074 18.2509L97.98 23.526H89.8975L92.559 17.0262L96.5074 18.2509Z" fill="black" />
        <path
            d="M78.8811 57.1989C78.7768 58.7757 79.4995 60.1081 80.4952 60.1748C81.4909 60.2416 82.3824 59.0176 82.4866 57.4402C82.5367 56.8107 82.4366 56.1782 82.1945 55.5957L82.5529 48.9092L79.4358 48.8066L79.4135 55.4092C79.0967 55.9544 78.9142 56.5681 78.8811 57.1989Z"
            fill="#FFB6B6" />
        <path
            d="M88.2667 31.1185C88.2667 31.1185 88.0943 26.2008 86.2374 25.899C84.3805 25.5971 81.8698 27.8161 81.8698 27.8161L78.0342 43.8283L78.6194 53.8894L82.8173 53.6505L83.8026 44.1183L88.2667 31.1185Z"
            fill="#3F3D56" />
        <path
            d="M106.271 89.8855C106.271 89.8855 109.325 95.6021 109.107 95.3822C108.889 95.1624 105.18 96.4816 105.18 96.4816L102.998 90.765L106.271 89.8855Z"
            fill="#FFB6B6" />
        <path
            d="M110.778 49.8701C110.778 49.8701 112.342 56.1687 112.184 55.9014C112.026 55.6342 108.109 55.9924 108.109 55.9924L107.392 49.9104L110.778 49.8701Z"
            fill="#FFB6B6" />
        <path
            d="M98.6348 21.7671H91.0092L82.7084 27.4837L80.3086 47.4918L81.6176 51.4495L84.0175 56.0668C84.0175 56.0668 81.6176 45.9528 87.5082 49.9104C93.3987 53.8681 93.835 54.5277 93.835 54.5277L101.689 50.57L104.634 34.1897L102.453 25.1751L98.6348 21.7671Z"
            fill="#3F3D56" />
        <path
            d="M83.5812 48.8111C90.4837 49.7883 96.7183 48.9363 101.798 44.9221C101.798 44.9221 105.507 57.4547 98.7439 58.7739C91.9807 60.0931 84.4539 57.8257 83.5812 55.627C82.7085 53.4283 83.5812 48.8111 83.5812 48.8111Z"
            fill="#2F2E41" />
        <path
            d="M96.453 52.7687L103.98 70.6468L107.471 91.3146L102.889 92.4139L94.6939 73.3952L83.5811 55.1872L96.453 52.7687Z"
            fill="#2F2E41" />
        <path
            d="M97.4346 47.6705C97.4346 47.6705 99.1799 34.0386 102.452 33.1591C104.048 32.7304 105.539 32.7719 106.649 32.9271C107.768 33.0835 108.66 33.9449 108.856 35.0659L111.829 52.1092H107.624L106.27 47.4919L102.671 53.8269L97.4346 47.6705Z"
            fill="#2F2E41" />
        <path
            d="M108.125 54.2666L112.283 53.8268L112.924 56.2454C112.924 56.2454 119.688 62.4017 116.197 62.8415C112.706 63.2812 109.434 60.8627 109.434 60.8627L104.632 58.0866C104.632 58.0866 106.488 53.0985 107.797 53.0985C109.106 53.0985 108.125 54.2666 108.125 54.2666Z"
            fill="#2F2E41" />
        <path
            d="M105.943 95.4922L110.101 95.0524L110.743 97.471C110.743 97.471 117.506 103.627 114.015 104.067C110.525 104.507 107.252 102.088 107.252 102.088L102.45 99.3122C102.45 99.3122 102.78 94.1042 104.089 94.1042C105.398 94.1042 105.943 95.4922 105.943 95.4922Z"
            fill="#2F2E41" />
        <path
            d="M94.5872 19.3973C97.2754 19.3973 99.4547 17.201 99.4547 14.4919C99.4547 11.7827 97.2754 9.58643 94.5872 9.58643C91.899 9.58643 89.7197 11.7827 89.7197 14.4919C89.7197 17.201 91.899 19.3973 94.5872 19.3973Z"
            fill="#FFB6B6" />
        <path
            d="M96.4526 9.01409C96.4526 9.01409 97.2638 11.3033 95.9658 11.7938C94.6678 12.2844 92.8831 12.9384 93.0453 13.756C93.2076 14.5736 92.5586 17.0263 92.5586 17.0263C92.5586 17.0263 96.4526 19.479 93.8566 21.9317C91.2606 24.3844 89.3136 23.3737 89.7192 25.7595C90.1249 28.1453 86.0686 27.1642 86.0686 27.1642C86.0686 27.1642 84.6084 24.875 85.7441 22.5858C86.8799 20.2966 84.9329 24.3844 84.4461 24.3844C83.9594 24.3844 81.5256 25.0385 82.4991 22.2588C83.4726 19.479 84.9329 19.3155 84.9329 17.1898C84.9329 15.0641 85.9064 12.4479 86.2309 12.1209C86.5554 11.7938 88.0156 7.54246 90.9361 7.86949C93.8566 8.19652 96.4526 9.01409 96.4526 9.01409Z"
            fill="#2F2E41" />
        <path
            d="M53.9098 89.8855C53.9098 89.8855 50.8555 95.6021 51.0737 95.3822C51.2918 95.1624 55.0007 96.4816 55.0007 96.4816L57.1824 90.765L53.9098 89.8855Z"
            fill="#A0616A" />
        <path
            d="M76.6 48.8111C69.6975 49.7883 63.463 48.9363 58.3829 44.9221C58.3829 44.9221 54.6741 57.4547 61.4373 58.7739C68.2005 60.0931 75.7273 57.8257 76.6 55.627C77.4727 53.4283 76.6 48.8111 76.6 48.8111Z"
            fill="#2F2E41" />
        <path
            d="M63.7275 52.7687L56.2007 70.6468L52.71 91.3146L57.2915 92.4139L65.4866 73.3952L76.5994 55.1872L63.7275 52.7687Z"
            fill="#2F2E41" />
        <path
            d="M54.2369 95.4922L50.0788 95.0524L49.4372 97.471C49.4372 97.471 42.674 103.627 46.1647 104.067C49.6554 104.507 52.9279 102.088 52.9279 102.088L57.7298 99.3122C57.7298 99.3122 57.4004 94.1042 56.0914 94.1042C54.7823 94.1042 54.2369 95.4922 54.2369 95.4922Z"
            fill="#2F2E41" />
        <path
            d="M60.8063 86.8778C60.8063 86.8778 59.6509 93.2652 59.7911 92.9882C59.9313 92.7112 63.8631 92.813 63.8631 92.813L64.1884 86.6969L60.8063 86.8778Z"
            fill="#A0616A" />
        <path
            d="M58.7835 48.5192L57.0967 67.8654L60.103 88.6104L64.7976 88.2316L66.771 67.5927L71.768 46.8177L58.7835 48.5192Z"
            fill="#2F2E41" />
        <path
            d="M62.8345 92.1093L58.7446 92.9838L58.8747 95.4839C58.8747 95.4839 54.3259 103.443 57.781 102.776C61.236 102.109 63.6085 98.7906 63.6085 98.7906L67.3264 94.657C67.3264 94.657 65.4188 89.8055 64.1736 90.2125C62.9285 90.6195 62.8345 92.1093 62.8345 92.1093Z"
            fill="#2F2E41" />
        <path
            d="M62.7172 8.47449C62.7172 8.47449 60.6366 9.70419 61.319 10.9203C62.0013 12.1364 62.9526 13.7928 62.3073 14.3145C61.6619 14.8362 60.5964 17.1363 60.5964 17.1363C60.5964 17.1363 56.0486 16.4962 56.4756 20.0564C56.9025 23.6167 59.039 24.1021 57.2078 25.6683C55.3766 27.2346 59.111 29.1078 59.111 29.1078C59.111 29.1078 61.6891 28.2981 62.2772 25.8083C62.8654 23.3185 61.7529 27.7121 62.126 28.0271C62.4991 28.3421 63.9479 30.4186 64.973 27.6578C65.9982 24.897 64.983 23.8265 66.3376 22.1971C67.6922 20.5677 68.6131 17.9322 68.5727 17.4715C68.5324 17.0108 70.1222 12.8069 67.6752 11.1674C65.2281 9.52795 62.7172 8.47449 62.7172 8.47449Z"
            fill="#2F2E41" />
        <path d="M63.6728 18.2509L62.2002 23.526H70.2827L67.6212 17.0262L63.6728 18.2509Z"
            fill="#A0616A" />
        <path opacity="0.1"
            d="M63.6728 18.2509L62.2002 23.526H70.2827L67.6212 17.0262L63.6728 18.2509Z"
            fill="black" />
        <path
            d="M81.2997 57.1989C81.4041 58.7757 80.6814 60.1081 79.6856 60.1748C78.6899 60.2416 77.7984 59.0176 77.6943 57.4402C77.6441 56.8107 77.7442 56.1782 77.9863 55.5957L77.6279 48.9092L80.745 48.8066L80.7674 55.4092C81.0841 55.9544 81.2666 56.5681 81.2997 57.1989Z"
            fill="#A0616A" />
        <path
            d="M71.9141 31.1185C71.9141 31.1185 72.0864 26.2008 73.9434 25.899C75.8003 25.5971 78.311 27.8161 78.311 27.8161L82.1466 43.8283L81.5614 53.8894L77.3634 53.6505L76.3782 44.1183L71.9141 31.1185Z"
            fill="#FFFDFF" />
        <path
            d="M61.5456 21.7671H69.1712L77.4719 27.4837L79.8718 47.4918L78.5627 51.4495L76.1629 56.0668C76.1629 56.0668 78.5627 45.9528 72.6722 49.9104C72.6133 49.95 72.5549 49.9892 72.4971 50.0282C68.7053 52.5805 63.7019 52.3185 60.1919 49.3851L57.4004 47.0521L58.9276 39.3567L57.7276 25.1751L61.5456 21.7671Z"
            fill="#FFFDFF" />
        <path
            d="M42.4651 46.8168C41.2421 47.8057 39.7444 47.9713 39.12 47.1868C38.4957 46.4023 38.9811 44.9649 40.2047 43.9758C40.6881 43.5739 41.26 43.2945 41.8725 43.1611L47.1071 39.0369L48.9751 41.5537L43.6164 45.3523C43.3542 45.9261 42.9594 46.4283 42.4651 46.8168Z"
            fill="#A0616A" />
        <path
            d="M58.3097 24.1298C58.3097 24.1298 62.4092 21.4569 63.7179 22.8184C65.0266 24.1799 64.6587 27.5249 64.6587 27.5249L53.8279 39.8614L45.3076 45.138L43.0986 41.5325L50.2895 35.2611L58.3097 24.1298Z"
            fill="#FFFDFF" />
        <path
            d="M65.5931 19.3973C68.2813 19.3973 70.4605 17.201 70.4605 14.4919C70.4605 11.7827 68.2813 9.58643 65.5931 9.58643C62.9048 9.58643 60.7256 11.7827 60.7256 14.4919C60.7256 17.201 62.9048 19.3973 65.5931 19.3973Z"
            fill="#A0616A" />
        <path
            d="M63.1706 11.2038C63.1706 11.2038 62.4535 8.7948 63.6487 8.7948C64.8439 8.7948 69.6245 9.0357 70.1025 9.51749C70.5806 9.99927 76.2376 14.8346 72.8911 18.6889C69.5447 22.5433 72.8911 24.4055 72.8911 24.4055C72.8911 24.4055 75.3612 30.2345 72.9709 30.7162C70.5806 31.198 60.7758 28.4432 63.1706 23.9712C65.7695 19.1182 66.9787 11.4584 63.1706 11.2038Z"
            fill="#2F2E41" />
        <path
            d="M142.82 47.016C142.742 46.7777 142.157 46.8826 142.101 46.6694C142.044 46.457 142.606 46.279 143.037 45.6804C143.115 45.5725 143.605 44.8923 143.417 44.6063C143.061 44.064 140.584 45.4146 139.989 44.6567C139.858 44.4903 139.805 44.2048 139.416 43.6734C139.261 43.462 139.162 43.36 139.043 43.363C138.875 43.3673 138.815 43.5794 138.551 43.9636C138.154 44.5398 138.011 44.4675 137.75 44.9396C137.556 45.2901 137.533 45.514 137.393 45.5272C137.195 45.5459 137.113 45.1095 136.871 45.0926C136.625 45.0753 136.378 45.5065 136.255 45.8433C136.026 46.4755 136.168 46.9587 136.199 47.4402C136.234 47.9635 136.153 48.7295 135.589 49.7127L130.268 58.2573C131.41 56.5154 134.655 51.7655 135.962 50.0232C136.339 49.5202 136.744 49.0152 137.368 48.9201C137.969 48.8287 138.7 49.1283 139.721 49.1108C139.84 49.1088 140.172 49.0989 140.252 48.9217C140.319 48.7752 140.153 48.6479 140.214 48.5102C140.294 48.3255 140.658 48.4048 141.153 48.2821C141.503 48.1956 141.74 48.0527 141.944 47.9299C142.006 47.8928 142.923 47.3332 142.82 47.016Z"
            fill="#F2F2F2" />
        <path
            d="M128.881 49.0109C128.743 48.9804 128.625 49.3003 128.505 49.2666C128.386 49.2331 128.461 48.9037 128.294 48.5178C128.264 48.4482 128.074 48.0097 127.88 48.0201C127.514 48.0398 127.456 49.6549 126.916 49.7304C126.797 49.7469 126.643 49.6911 126.272 49.7301C126.124 49.7456 126.046 49.7653 126.013 49.8248C125.966 49.9092 126.052 50.0002 126.163 50.2418C126.329 50.6042 126.253 50.6542 126.407 50.9196C126.522 51.1166 126.625 51.1926 126.591 51.2656C126.543 51.3689 126.307 51.2834 126.229 51.3981C126.149 51.5152 126.288 51.7617 126.416 51.9195C126.658 52.2155 126.934 52.2845 127.178 52.4079C127.443 52.5419 127.793 52.8027 128.109 53.3655L130.734 58.4631C130.216 57.3952 128.839 54.42 128.367 53.2708C128.231 52.9391 128.102 52.5928 128.236 52.2567C128.365 51.9331 128.722 51.6579 129.008 51.1481C129.041 51.0886 129.132 50.9217 129.069 50.8306C129.017 50.7554 128.907 50.8006 128.857 50.731C128.791 50.6378 128.934 50.4808 129.017 50.2004C129.076 50.0026 129.075 49.844 129.074 49.7076C129.074 49.6664 129.066 49.0515 128.881 49.0109Z"
            fill="#F2F2F2" />
        <path
            d="M131.501 50.2546L131.584 49.4866L131.634 49.4384C131.868 49.2153 132.015 48.979 132.07 48.7357C132.079 48.6971 132.085 48.658 132.092 48.6181C132.12 48.4602 132.154 48.2639 132.304 48.06C132.389 47.9464 132.612 47.6897 132.842 47.7794C132.904 47.8028 132.946 47.8434 132.975 47.8864C132.982 47.8789 132.99 47.8715 132.998 47.8634C133.097 47.7661 133.166 47.7305 133.233 47.6961C133.285 47.6697 133.338 47.6426 133.428 47.5701C133.467 47.5383 133.499 47.5097 133.525 47.4857C133.606 47.4131 133.709 47.328 133.851 47.3617C134.001 47.403 134.052 47.5471 134.086 47.6425C134.147 47.8127 134.166 47.9297 134.178 48.0073C134.183 48.0356 134.188 48.0675 134.192 48.0779C134.225 48.1613 134.636 48.1828 134.791 48.1918C135.14 48.2109 135.441 48.2273 135.514 48.4677C135.566 48.6397 135.457 48.8272 135.182 49.04C135.096 49.1062 135.011 49.1519 134.936 49.186C134.982 49.2297 135.019 49.2892 135.021 49.3702C135.026 49.562 134.831 49.7092 134.441 49.8084C134.344 49.8333 134.214 49.8663 134.043 49.8579C133.963 49.8539 133.892 49.8415 133.832 49.83C133.823 49.8644 133.807 49.9002 133.777 49.9342C133.691 50.0343 133.55 50.0598 133.36 50.0034C133.15 49.9444 132.984 49.8642 132.838 49.7936C132.71 49.7322 132.6 49.6797 132.507 49.6654C132.335 49.6411 132.174 49.7482 131.982 49.8907L131.501 50.2546Z"
            fill="#F2F2F2" />
        <path
            d="M132.875 45.8804L132.117 45.9947L132.057 45.9576C131.784 45.7858 131.52 45.703 131.272 45.7111C131.233 45.7124 131.194 45.7157 131.154 45.719C130.995 45.7324 130.798 45.749 130.564 45.6539C130.434 45.6005 130.131 45.4482 130.159 45.2013C130.166 45.1348 130.194 45.0837 130.228 45.0444C130.219 45.0391 130.21 45.0337 130.2 45.028C130.081 44.9558 130.029 44.8971 129.98 44.8405C129.941 44.7971 129.902 44.7522 129.809 44.6829C129.769 44.6526 129.733 44.629 129.703 44.6092C129.613 44.5489 129.505 44.4699 129.502 44.3235C129.504 44.1669 129.629 44.0802 129.712 44.0228C129.86 43.9203 129.967 43.8723 130.039 43.8405C130.065 43.829 130.094 43.8158 130.103 43.8094C130.175 43.7563 130.091 43.3493 130.06 43.196C129.99 42.8516 129.929 42.5536 130.142 42.422C130.294 42.3276 130.501 42.3857 130.775 42.5999C130.86 42.6667 130.926 42.7386 130.978 42.8027C131.008 42.7469 131.056 42.6961 131.133 42.6734C131.316 42.6198 131.507 42.7728 131.701 43.1277C131.749 43.2159 131.814 43.3346 131.849 43.503C131.866 43.5823 131.872 43.654 131.876 43.7154C131.911 43.7154 131.95 43.7223 131.99 43.7425C132.108 43.8017 132.168 43.9319 132.162 44.1317C132.159 44.3514 132.124 44.5335 132.093 44.6942C132.067 44.8344 132.044 44.9553 132.054 45.0491C132.074 45.2231 132.218 45.3524 132.403 45.5035L132.875 45.8804Z"
            fill="#F2F2F2" />
        <path
            d="M132.977 43.5862L133.059 42.8182L133.11 42.7699C133.344 42.5469 133.49 42.3105 133.545 42.0673C133.554 42.0286 133.561 41.9895 133.568 41.9497C133.595 41.7918 133.629 41.5955 133.78 41.3916C133.864 41.278 134.087 41.0213 134.317 41.1109C134.379 41.1344 134.421 41.1749 134.45 41.2179C134.458 41.2105 134.465 41.203 134.473 41.195C134.572 41.0977 134.642 41.062 134.709 41.0277C134.76 41.0013 134.813 40.9741 134.903 40.9016C134.943 40.8699 134.974 40.8413 135.001 40.8172C135.082 40.7446 135.185 40.6596 135.326 40.6933C135.476 40.7346 135.528 40.8786 135.562 40.974C135.623 41.1442 135.641 41.2612 135.654 41.3388C135.658 41.3672 135.663 41.3991 135.667 41.4095C135.7 41.4928 136.112 41.5144 136.267 41.5234C136.615 41.5424 136.917 41.5589 136.989 41.7993C137.041 41.9712 136.933 42.1588 136.658 42.3715C136.572 42.4377 136.486 42.4834 136.412 42.5175C136.458 42.5613 136.494 42.6207 136.496 42.7018C136.501 42.8935 136.306 43.0407 135.916 43.1399C135.819 43.1648 135.689 43.1978 135.519 43.1895C135.438 43.1855 135.368 43.1731 135.308 43.1615C135.299 43.196 135.283 43.2318 135.253 43.2658C135.166 43.3659 135.026 43.3913 134.836 43.3349C134.626 43.2759 134.46 43.1957 134.313 43.1252C134.185 43.0638 134.075 43.0113 133.983 42.9969C133.81 42.9727 133.65 43.0798 133.458 43.2223L132.977 43.5862Z"
            fill="#F2F2F2" />
        <path
            d="M130.519 58.301L130.385 58.1675L130.199 58.1477C130.199 58.13 130.198 58.0887 130.197 58.0243C130.19 57.671 130.168 56.5957 130.316 54.9437C130.42 53.7904 130.593 52.6198 130.831 51.4637C131.07 50.3058 131.317 49.4443 131.516 48.7518C131.666 48.2295 131.818 47.7342 131.966 47.2516C132.36 45.9625 132.733 44.7447 132.964 43.3557C133.015 43.0456 133.122 42.4002 132.903 41.6383C132.776 41.1965 132.557 40.7806 132.254 40.4026L132.548 40.1639C132.882 40.5817 133.123 41.0422 133.265 41.5328C133.508 42.3775 133.391 43.0808 133.335 43.4187C133.1 44.8323 132.724 46.0617 132.326 47.3633C132.178 47.8441 132.027 48.3373 131.878 48.8574C131.681 49.5435 131.436 50.3975 131.2 51.5405C130.965 52.6828 130.794 53.8391 130.691 54.9778C130.544 56.6091 130.566 57.6683 130.574 58.0163C130.577 58.2021 130.578 58.241 130.519 58.301Z"
            fill="#F2F2F2" />
        <path
            d="M131.45 40.8397C131.435 40.8363 131.42 40.8325 131.405 40.828C131.096 40.7406 130.847 40.4866 130.667 40.0731C130.583 39.8787 130.563 39.6741 130.523 39.266C130.517 39.2031 130.49 38.8847 130.523 38.4628C130.545 38.1871 130.575 38.0764 130.649 37.9894C130.732 37.8925 130.843 37.8371 130.961 37.8092C130.964 37.7727 130.976 37.737 131 37.7032C131.096 37.5628 131.258 37.6205 131.346 37.6505C131.391 37.6665 131.446 37.6869 131.508 37.6975C131.606 37.7145 131.664 37.6972 131.752 37.6714C131.837 37.6467 131.942 37.616 132.087 37.6186C132.373 37.6226 132.585 37.7523 132.655 37.7949C133.023 38.0178 133.15 38.3734 133.297 38.7851C133.326 38.8676 133.423 39.1659 133.446 39.55C133.462 39.8271 133.426 39.9405 133.385 40.0216C133.3 40.1883 133.171 40.2656 132.85 40.4283C132.515 40.5987 132.347 40.6839 132.209 40.7278C131.889 40.8292 131.687 40.893 131.45 40.8397Z"
            fill="#F2F2F2" />
        <path
            d="M36.469 45.0057L36.2229 37.1799C36.2189 37.0529 36.2684 36.9292 36.3588 36.8406C36.4493 36.752 36.5734 36.7055 36.6994 36.7131L42.8614 37.0855C42.9859 37.093 43.1027 37.153 43.1818 37.2501C43.261 37.3471 43.2969 37.4741 43.2802 37.5986L42.2378 45.3768C42.2063 45.6122 41.9974 45.7842 41.7623 45.7685L36.8889 45.4437C36.8395 45.4404 36.7924 45.4293 36.7488 45.4115C36.5878 45.3459 36.4748 45.19 36.469 45.0057Z"
            fill="#FFFDFF" />
        <path
            d="M36.2304 36.4478C36.3166 36.4386 36.4321 36.4274 36.5707 36.4156C36.5337 36.3461 36.5185 36.2638 36.5344 36.1794L36.6444 35.5932C36.673 35.4411 36.7946 35.3245 36.9469 35.304C37.8542 35.1817 40.9748 34.85 42.9399 35.7484C43.0628 35.8046 43.1419 35.9281 43.1458 36.0641L43.1638 36.6894C43.166 36.7667 43.1437 36.8384 43.1047 36.8978C43.268 36.9421 43.4308 36.9889 43.5924 37.04C43.6936 37.0719 43.766 37.162 43.7782 37.2682L43.8087 37.5345C43.8281 37.7036 43.6906 37.8489 43.5221 37.8374L36.1554 37.336C35.9877 37.3246 35.871 37.1634 35.9113 36.999L35.9962 36.6532C36.0235 36.5418 36.1172 36.4598 36.2304 36.4478Z"
            fill="#3F3D56" />
        <path
            d="M17.9251 22.7989L17.6789 14.9731C17.6749 14.8461 17.7245 14.7224 17.8149 14.6338C17.9054 14.5452 18.0295 14.4987 18.1554 14.5063L24.3174 14.8788C24.4419 14.8862 24.5587 14.9462 24.6379 15.0433C24.7171 15.1403 24.7529 15.2674 24.7363 15.3919L23.6938 23.17C23.6623 23.4054 23.4535 23.5774 23.2184 23.5617L18.345 23.2369C18.2955 23.2336 18.2485 23.2225 18.2049 23.2047C18.0439 23.1391 17.9309 22.9832 17.9251 22.7989Z"
            fill="#FFFDFF" />
        <path
            d="M17.6865 14.241C17.7727 14.2318 17.8882 14.2206 18.0268 14.2089C17.9897 14.1393 17.9746 14.0571 17.9904 13.9726L18.1004 13.3865C18.129 13.2343 18.2506 13.1177 18.4029 13.0972C19.3102 12.9749 22.4309 12.6432 24.3959 13.5416C24.5189 13.5978 24.598 13.7213 24.6019 13.8573L24.6199 14.4826C24.6221 14.56 24.5998 14.6316 24.5607 14.691C24.7241 14.7353 24.8869 14.7821 25.0484 14.8332C25.1496 14.8652 25.2221 14.9552 25.2343 15.0614L25.2648 15.3278C25.2841 15.4968 25.1466 15.6421 24.9782 15.6306L17.6114 15.1293C17.4438 15.1178 17.327 14.9566 17.3674 14.7922L17.4523 14.4464C17.4796 14.335 17.5732 14.253 17.6865 14.241Z"
            fill="#3F3D56" />
        <path
            d="M114.574 46.9846L114.327 39.1588C114.323 39.0318 114.373 38.9081 114.463 38.8195C114.554 38.7308 114.678 38.6844 114.804 38.692L120.966 39.0644C121.09 39.0719 121.207 39.1319 121.286 39.229C121.366 39.326 121.401 39.453 121.385 39.5775L120.342 47.3557C120.311 47.5911 120.102 47.7631 119.867 47.7473L114.993 47.4226C114.944 47.4192 114.897 47.4082 114.853 47.3904C114.692 47.3248 114.579 47.1689 114.574 46.9846Z"
            fill="#FFFDFF" />
        <path
            d="M114.335 38.4267C114.421 38.4175 114.537 38.4063 114.675 38.3945C114.638 38.325 114.623 38.2427 114.639 38.1583L114.749 37.5721C114.777 37.42 114.899 37.3034 115.051 37.2828C115.959 37.1606 119.079 36.8288 121.044 37.7273C121.167 37.7835 121.246 37.9069 121.25 38.0429L121.268 38.6683C121.271 38.7456 121.248 38.8173 121.209 38.8767C121.372 38.921 121.535 38.9678 121.697 39.0188C121.798 39.0508 121.871 39.1409 121.883 39.2471L121.913 39.5134C121.933 39.6825 121.795 39.8278 121.627 39.8163L114.26 39.3149C114.092 39.3035 113.975 39.1423 114.016 38.9779L114.101 38.6321C114.128 38.5207 114.222 38.4387 114.335 38.4267Z"
            fill="#3F3D56" />
    </g>
    <defs>
        <clipPath id="clip0_265_5793">
            <rect width="144" height="105" fill="white" />
        </clipPath>
    </defs>
</svg>
